%FSLAX45Y45*%
G04 Gerber Fmt 4.5, Leading zero omitted, Abs format (unit mm)*
G04 Created by KiCad (PCBNEW 5.99.0+really5.1.10+dfsg1-1) date 2022-05-12 15:51:28*
%MOMM*%
%LPD*%
G01*
G04 APERTURE LIST*
%TA.AperFunction,Profile*%
%ADD10C,0.050000*%
%TD*%
%ADD11C,0.200000*%
%ADD12C,0.300000*%
G04 APERTURE END LIST*
D10*
X19700000Y-10950000D02*
X19700000Y-3800000D01*
X-150000Y-10950000D02*
X19700000Y-10950000D01*
X-150000Y-3800000D02*
X-150000Y-10950000D01*
X-150000Y-3800000D02*
X19700000Y-3800000D01*
D11*
D12*
X133928Y-11418214D02*
X133928Y-11118214D01*
X205357Y-11118214D01*
X248214Y-11132500D01*
X276786Y-11161072D01*
X291071Y-11189643D01*
X305357Y-11246786D01*
X305357Y-11289643D01*
X291071Y-11346786D01*
X276786Y-11375357D01*
X248214Y-11403929D01*
X205357Y-11418214D01*
X133928Y-11418214D01*
X433928Y-11418214D02*
X433928Y-11218214D01*
X433928Y-11275357D02*
X448214Y-11246786D01*
X462500Y-11232500D01*
X491071Y-11218214D01*
X519643Y-11218214D01*
X619643Y-11418214D02*
X619643Y-11218214D01*
X619643Y-11118214D02*
X605357Y-11132500D01*
X619643Y-11146786D01*
X633928Y-11132500D01*
X619643Y-11118214D01*
X619643Y-11146786D01*
X805357Y-11418214D02*
X776786Y-11403929D01*
X762500Y-11375357D01*
X762500Y-11118214D01*
X962500Y-11418214D02*
X933928Y-11403929D01*
X919643Y-11375357D01*
X919643Y-11118214D01*
X1305357Y-11418214D02*
X1305357Y-11118214D01*
X1405357Y-11332500D01*
X1505357Y-11118214D01*
X1505357Y-11418214D01*
X1776786Y-11418214D02*
X1776786Y-11261071D01*
X1762500Y-11232500D01*
X1733928Y-11218214D01*
X1676786Y-11218214D01*
X1648214Y-11232500D01*
X1776786Y-11403929D02*
X1748214Y-11418214D01*
X1676786Y-11418214D01*
X1648214Y-11403929D01*
X1633928Y-11375357D01*
X1633928Y-11346786D01*
X1648214Y-11318214D01*
X1676786Y-11303929D01*
X1748214Y-11303929D01*
X1776786Y-11289643D01*
X1919643Y-11218214D02*
X1919643Y-11518214D01*
X1919643Y-11232500D02*
X1948214Y-11218214D01*
X2005357Y-11218214D01*
X2033928Y-11232500D01*
X2048214Y-11246786D01*
X2062500Y-11275357D01*
X2062500Y-11361071D01*
X2048214Y-11389643D01*
X2033928Y-11403929D01*
X2005357Y-11418214D01*
X1948214Y-11418214D01*
X1919643Y-11403929D01*
X2191071Y-11389643D02*
X2205357Y-11403929D01*
X2191071Y-11418214D01*
X2176786Y-11403929D01*
X2191071Y-11389643D01*
X2191071Y-11418214D01*
X2191071Y-11232500D02*
X2205357Y-11246786D01*
X2191071Y-11261071D01*
X2176786Y-11246786D01*
X2191071Y-11232500D01*
X2191071Y-11261071D01*
M02*
