%TF.GenerationSoftware,KiCad,Pcbnew,5.99.0+really5.1.10+dfsg1-1*%
%TF.CreationDate,2022-05-23T17:43:13+02:00*%
%TF.ProjectId,sortie_GPIO,736f7274-6965-45f4-9750-494f2e6b6963,rev?*%
%TF.SameCoordinates,Original*%
%TF.FileFunction,Copper,L2,Bot*%
%TF.FilePolarity,Positive*%
%FSLAX46Y46*%
G04 Gerber Fmt 4.6, Leading zero omitted, Abs format (unit mm)*
G04 Created by KiCad (PCBNEW 5.99.0+really5.1.10+dfsg1-1) date 2022-05-23 17:43:13*
%MOMM*%
%LPD*%
G01*
G04 APERTURE LIST*
%TA.AperFunction,ComponentPad*%
%ADD10C,3.000000*%
%TD*%
%TA.AperFunction,ComponentPad*%
%ADD11R,3.000000X3.000000*%
%TD*%
%TA.AperFunction,ComponentPad*%
%ADD12O,1.700000X1.700000*%
%TD*%
%TA.AperFunction,ComponentPad*%
%ADD13R,1.700000X1.700000*%
%TD*%
%TA.AperFunction,ComponentPad*%
%ADD14O,1.600000X1.600000*%
%TD*%
%TA.AperFunction,ComponentPad*%
%ADD15C,1.600000*%
%TD*%
%TA.AperFunction,ViaPad*%
%ADD16C,3.000000*%
%TD*%
%TA.AperFunction,ViaPad*%
%ADD17C,2.000000*%
%TD*%
%TA.AperFunction,Conductor*%
%ADD18C,1.000000*%
%TD*%
G04 APERTURE END LIST*
D10*
%TO.P,J20,2*%
%TO.N,Net-(U1-Pad2)*%
X90000000Y-96500000D03*
D11*
%TO.P,J20,1*%
%TO.N,+5V*%
X84920000Y-96500000D03*
%TD*%
D12*
%TO.P,U3,10*%
%TO.N,Net-(J4-Pad5)*%
X160640000Y-74500000D03*
%TO.P,U3,9*%
%TO.N,Net-(J4-Pad3)*%
X163180000Y-74500000D03*
%TO.P,U3,8*%
%TO.N,+3V3*%
X165720000Y-74500000D03*
%TO.P,U3,7*%
%TO.N,Net-(J16-Pad2)*%
X168260000Y-74500000D03*
%TO.P,U3,6*%
%TO.N,Net-(J17-Pad2)*%
X170800000Y-74500000D03*
%TO.P,U3,5*%
%TO.N,Net-(J18-Pad2)*%
X173340000Y-74500000D03*
%TO.P,U3,4*%
%TO.N,Net-(J19-Pad2)*%
X175880000Y-74500000D03*
%TO.P,U3,3*%
%TO.N,GND*%
X178420000Y-74500000D03*
%TO.P,U3,2*%
%TO.N,Net-(U3-Pad2)*%
X180960000Y-74500000D03*
D13*
%TO.P,U3,1*%
%TO.N,Net-(J4-Pad3)*%
X183500000Y-74500000D03*
%TD*%
D12*
%TO.P,U2,10*%
%TO.N,Net-(J4-Pad5)*%
X112640000Y-74500000D03*
%TO.P,U2,9*%
%TO.N,Net-(J4-Pad3)*%
X115180000Y-74500000D03*
%TO.P,U2,8*%
%TO.N,+3V3*%
X117720000Y-74500000D03*
%TO.P,U2,7*%
%TO.N,Net-(J12-Pad2)*%
X120260000Y-74500000D03*
%TO.P,U2,6*%
%TO.N,Net-(J13-Pad2)*%
X122800000Y-74500000D03*
%TO.P,U2,5*%
%TO.N,Net-(J14-Pad2)*%
X125340000Y-74500000D03*
%TO.P,U2,4*%
%TO.N,Net-(J15-Pad2)*%
X127880000Y-74500000D03*
%TO.P,U2,3*%
%TO.N,GND*%
X130420000Y-74500000D03*
%TO.P,U2,2*%
%TO.N,Net-(U2-Pad2)*%
X132960000Y-74500000D03*
D13*
%TO.P,U2,1*%
%TO.N,+3V3*%
X135500000Y-74500000D03*
%TD*%
D12*
%TO.P,U1,10*%
%TO.N,Net-(J4-Pad5)*%
X70640000Y-74500000D03*
%TO.P,U1,9*%
%TO.N,Net-(J4-Pad3)*%
X73180000Y-74500000D03*
%TO.P,U1,8*%
%TO.N,+3V3*%
X75720000Y-74500000D03*
%TO.P,U1,7*%
%TO.N,Net-(J8-Pad2)*%
X78260000Y-74500000D03*
%TO.P,U1,6*%
%TO.N,Net-(J9-Pad2)*%
X80800000Y-74500000D03*
%TO.P,U1,5*%
%TO.N,Net-(J10-Pad2)*%
X83340000Y-74500000D03*
%TO.P,U1,4*%
%TO.N,Net-(J11-Pad2)*%
X85880000Y-74500000D03*
%TO.P,U1,3*%
%TO.N,GND*%
X88420000Y-74500000D03*
%TO.P,U1,2*%
%TO.N,Net-(U1-Pad2)*%
X90960000Y-74500000D03*
D13*
%TO.P,U1,1*%
%TO.N,GND*%
X93500000Y-74500000D03*
%TD*%
D12*
%TO.P,J7,20*%
%TO.N,GND*%
X10640000Y-89540000D03*
%TO.P,J7,19*%
X10640000Y-87000000D03*
%TO.P,J7,18*%
%TO.N,Net-(J4-Pad32)*%
X13180000Y-89540000D03*
%TO.P,J7,17*%
%TO.N,Net-(J4-Pad7)*%
X13180000Y-87000000D03*
%TO.P,J7,16*%
%TO.N,Net-(J4-Pad36)*%
X15720000Y-89540000D03*
%TO.P,J7,15*%
%TO.N,Net-(J4-Pad11)*%
X15720000Y-87000000D03*
%TO.P,J7,14*%
%TO.N,Net-(J4-Pad38)*%
X18260000Y-89540000D03*
%TO.P,J7,13*%
%TO.N,Net-(J4-Pad13)*%
X18260000Y-87000000D03*
%TO.P,J7,12*%
%TO.N,Net-(J4-Pad40)*%
X20800000Y-89540000D03*
%TO.P,J7,11*%
%TO.N,Net-(J4-Pad15)*%
X20800000Y-87000000D03*
%TO.P,J7,10*%
%TO.N,Net-(J4-Pad37)*%
X23340000Y-89540000D03*
%TO.P,J7,9*%
%TO.N,Net-(J4-Pad19)*%
X23340000Y-87000000D03*
%TO.P,J7,8*%
%TO.N,Net-(J4-Pad35)*%
X25880000Y-89540000D03*
%TO.P,J7,7*%
%TO.N,Net-(J4-Pad21)*%
X25880000Y-87000000D03*
%TO.P,J7,6*%
%TO.N,Net-(J4-Pad33)*%
X28420000Y-89540000D03*
%TO.P,J7,5*%
%TO.N,Net-(J4-Pad23)*%
X28420000Y-87000000D03*
%TO.P,J7,4*%
%TO.N,Net-(J4-Pad31)*%
X30960000Y-89540000D03*
%TO.P,J7,3*%
%TO.N,Net-(J4-Pad29)*%
X30960000Y-87000000D03*
%TO.P,J7,2*%
%TO.N,+5V*%
X33500000Y-89540000D03*
D13*
%TO.P,J7,1*%
X33500000Y-87000000D03*
%TD*%
D12*
%TO.P,J4,40*%
%TO.N,Net-(J4-Pad40)*%
X52580000Y-77960000D03*
%TO.P,J4,39*%
%TO.N,GND*%
X52580000Y-80500000D03*
%TO.P,J4,38*%
%TO.N,Net-(J4-Pad38)*%
X50040000Y-77960000D03*
%TO.P,J4,37*%
%TO.N,Net-(J4-Pad37)*%
X50040000Y-80500000D03*
%TO.P,J4,36*%
%TO.N,Net-(J4-Pad36)*%
X47500000Y-77960000D03*
%TO.P,J4,35*%
%TO.N,Net-(J4-Pad35)*%
X47500000Y-80500000D03*
%TO.P,J4,34*%
%TO.N,GND*%
X44960000Y-77960000D03*
%TO.P,J4,33*%
%TO.N,Net-(J4-Pad33)*%
X44960000Y-80500000D03*
%TO.P,J4,32*%
%TO.N,Net-(J4-Pad32)*%
X42420000Y-77960000D03*
%TO.P,J4,31*%
%TO.N,Net-(J4-Pad31)*%
X42420000Y-80500000D03*
%TO.P,J4,30*%
%TO.N,GND*%
X39880000Y-77960000D03*
%TO.P,J4,29*%
%TO.N,Net-(J4-Pad29)*%
X39880000Y-80500000D03*
%TO.P,J4,28*%
%TO.N,Net-(J4-Pad28)*%
X37340000Y-77960000D03*
%TO.P,J4,27*%
%TO.N,Net-(J4-Pad27)*%
X37340000Y-80500000D03*
%TO.P,J4,26*%
%TO.N,Net-(J4-Pad26)*%
X34800000Y-77960000D03*
%TO.P,J4,25*%
%TO.N,GND*%
X34800000Y-80500000D03*
%TO.P,J4,24*%
%TO.N,Net-(J4-Pad24)*%
X32260000Y-77960000D03*
%TO.P,J4,23*%
%TO.N,Net-(J4-Pad23)*%
X32260000Y-80500000D03*
%TO.P,J4,22*%
%TO.N,Net-(J3-Pad2)*%
X29720000Y-77960000D03*
%TO.P,J4,21*%
%TO.N,Net-(J4-Pad21)*%
X29720000Y-80500000D03*
%TO.P,J4,20*%
%TO.N,GND*%
X27180000Y-77960000D03*
%TO.P,J4,19*%
%TO.N,Net-(J4-Pad19)*%
X27180000Y-80500000D03*
%TO.P,J4,18*%
%TO.N,Net-(J3-Pad1)*%
X24640000Y-77960000D03*
%TO.P,J4,17*%
%TO.N,Net-(J4-Pad17)*%
X24640000Y-80500000D03*
%TO.P,J4,16*%
%TO.N,Net-(J2-Pad2)*%
X22100000Y-77960000D03*
%TO.P,J4,15*%
%TO.N,Net-(J4-Pad15)*%
X22100000Y-80500000D03*
%TO.P,J4,14*%
%TO.N,GND*%
X19560000Y-77960000D03*
%TO.P,J4,13*%
%TO.N,Net-(J4-Pad13)*%
X19560000Y-80500000D03*
%TO.P,J4,12*%
%TO.N,Net-(J2-Pad1)*%
X17020000Y-77960000D03*
%TO.P,J4,11*%
%TO.N,Net-(J4-Pad11)*%
X17020000Y-80500000D03*
%TO.P,J4,10*%
%TO.N,Net-(J1-Pad2)*%
X14480000Y-77960000D03*
%TO.P,J4,9*%
%TO.N,GND*%
X14480000Y-80500000D03*
%TO.P,J4,8*%
%TO.N,Net-(J1-Pad1)*%
X11940000Y-77960000D03*
%TO.P,J4,7*%
%TO.N,Net-(J4-Pad7)*%
X11940000Y-80500000D03*
%TO.P,J4,6*%
%TO.N,GND*%
X9400000Y-77960000D03*
%TO.P,J4,5*%
%TO.N,Net-(J4-Pad5)*%
X9400000Y-80500000D03*
%TO.P,J4,4*%
%TO.N,+5V*%
X6860000Y-77960000D03*
%TO.P,J4,3*%
%TO.N,Net-(J4-Pad3)*%
X6860000Y-80500000D03*
%TO.P,J4,2*%
%TO.N,+5V*%
X4320000Y-77960000D03*
D13*
%TO.P,J4,1*%
%TO.N,+3V3*%
X4320000Y-80500000D03*
%TD*%
D14*
%TO.P,R10K20,2*%
%TO.N,+3V3*%
X192500000Y-64500000D03*
D15*
%TO.P,R10K20,1*%
%TO.N,Net-(J19-Pad2)*%
X192500000Y-51800000D03*
%TD*%
D14*
%TO.P,R10K19,2*%
%TO.N,+3V3*%
X181000000Y-64500000D03*
D15*
%TO.P,R10K19,1*%
%TO.N,Net-(J18-Pad2)*%
X181000000Y-51800000D03*
%TD*%
D14*
%TO.P,R10K18,2*%
%TO.N,+3V3*%
X173000000Y-64500000D03*
D15*
%TO.P,R10K18,1*%
%TO.N,Net-(J17-Pad2)*%
X173000000Y-51800000D03*
%TD*%
D14*
%TO.P,R10K17,2*%
%TO.N,+3V3*%
X155500000Y-64500000D03*
D15*
%TO.P,R10K17,1*%
%TO.N,Net-(J16-Pad2)*%
X155500000Y-51800000D03*
%TD*%
D14*
%TO.P,R10K16,2*%
%TO.N,+3V3*%
X147500000Y-64500000D03*
D15*
%TO.P,R10K16,1*%
%TO.N,Net-(J15-Pad2)*%
X147500000Y-51800000D03*
%TD*%
D14*
%TO.P,R10K15,2*%
%TO.N,+3V3*%
X136500000Y-64500000D03*
D15*
%TO.P,R10K15,1*%
%TO.N,Net-(J14-Pad2)*%
X136500000Y-51800000D03*
%TD*%
D14*
%TO.P,R10K14,2*%
%TO.N,+3V3*%
X130500000Y-64500000D03*
D15*
%TO.P,R10K14,1*%
%TO.N,Net-(J13-Pad2)*%
X130500000Y-51800000D03*
%TD*%
D14*
%TO.P,R10K13,2*%
%TO.N,+3V3*%
X109500000Y-64500000D03*
D15*
%TO.P,R10K13,1*%
%TO.N,Net-(J12-Pad2)*%
X109500000Y-51800000D03*
%TD*%
D14*
%TO.P,R10K12,2*%
%TO.N,+3V3*%
X103500000Y-64500000D03*
D15*
%TO.P,R10K12,1*%
%TO.N,Net-(J11-Pad2)*%
X103500000Y-51800000D03*
%TD*%
D14*
%TO.P,R10K11,2*%
%TO.N,+3V3*%
X92000000Y-64500000D03*
D15*
%TO.P,R10K11,1*%
%TO.N,Net-(J10-Pad2)*%
X92000000Y-51800000D03*
%TD*%
D14*
%TO.P,R10K10,2*%
%TO.N,+3V3*%
X84000000Y-64700000D03*
D15*
%TO.P,R10K10,1*%
%TO.N,Net-(J9-Pad2)*%
X84000000Y-52000000D03*
%TD*%
D14*
%TO.P,R10K9,2*%
%TO.N,+3V3*%
X61000000Y-64700000D03*
D15*
%TO.P,R10K9,1*%
%TO.N,Net-(J8-Pad2)*%
X61000000Y-52000000D03*
%TD*%
D14*
%TO.P,R10K8,2*%
%TO.N,+3V3*%
X42000000Y-64700000D03*
D15*
%TO.P,R10K8,1*%
%TO.N,Net-(J4-Pad26)*%
X42000000Y-52000000D03*
%TD*%
D14*
%TO.P,R10K7,2*%
%TO.N,+3V3*%
X36500000Y-64500000D03*
D15*
%TO.P,R10K7,1*%
%TO.N,Net-(J4-Pad24)*%
X36500000Y-51800000D03*
%TD*%
D14*
%TO.P,R10K6,2*%
%TO.N,+3V3*%
X30500000Y-64500000D03*
D15*
%TO.P,R10K6,1*%
%TO.N,Net-(J3-Pad2)*%
X30500000Y-51800000D03*
%TD*%
D14*
%TO.P,R10K5,2*%
%TO.N,+3V3*%
X25500000Y-64500000D03*
D15*
%TO.P,R10K5,1*%
%TO.N,Net-(J3-Pad1)*%
X25500000Y-51800000D03*
%TD*%
D14*
%TO.P,R10K4,2*%
%TO.N,+3V3*%
X19500000Y-64500000D03*
D15*
%TO.P,R10K4,1*%
%TO.N,Net-(J2-Pad2)*%
X19500000Y-51800000D03*
%TD*%
D14*
%TO.P,R10K3,2*%
%TO.N,+3V3*%
X14500000Y-64500000D03*
D15*
%TO.P,R10K3,1*%
%TO.N,Net-(J2-Pad1)*%
X14500000Y-51800000D03*
%TD*%
D14*
%TO.P,R10K2,2*%
%TO.N,+3V3*%
X9000000Y-64500000D03*
D15*
%TO.P,R10K2,1*%
%TO.N,Net-(J1-Pad2)*%
X9000000Y-51800000D03*
%TD*%
D14*
%TO.P,R10K1,2*%
%TO.N,+3V3*%
X3500000Y-64500000D03*
D15*
%TO.P,R10K1,1*%
%TO.N,Net-(J1-Pad1)*%
X3500000Y-51800000D03*
%TD*%
D10*
%TO.P,J19,2*%
%TO.N,Net-(J19-Pad2)*%
X192580000Y-44500000D03*
D11*
%TO.P,J19,1*%
%TO.N,GND*%
X187500000Y-44500000D03*
%TD*%
D10*
%TO.P,J18,2*%
%TO.N,Net-(J18-Pad2)*%
X181080000Y-44500000D03*
D11*
%TO.P,J18,1*%
%TO.N,GND*%
X176000000Y-44500000D03*
%TD*%
D10*
%TO.P,J17,2*%
%TO.N,Net-(J17-Pad2)*%
X169580000Y-44500000D03*
D11*
%TO.P,J17,1*%
%TO.N,GND*%
X164500000Y-44500000D03*
%TD*%
D10*
%TO.P,J16,2*%
%TO.N,Net-(J16-Pad2)*%
X158580000Y-44500000D03*
D11*
%TO.P,J16,1*%
%TO.N,GND*%
X153500000Y-44500000D03*
%TD*%
D10*
%TO.P,J15,2*%
%TO.N,Net-(J15-Pad2)*%
X147500000Y-44500000D03*
D11*
%TO.P,J15,1*%
%TO.N,GND*%
X142420000Y-44500000D03*
%TD*%
D10*
%TO.P,J14,2*%
%TO.N,Net-(J14-Pad2)*%
X136580000Y-44500000D03*
D11*
%TO.P,J14,1*%
%TO.N,GND*%
X131500000Y-44500000D03*
%TD*%
D10*
%TO.P,J13,2*%
%TO.N,Net-(J13-Pad2)*%
X125580000Y-44500000D03*
D11*
%TO.P,J13,1*%
%TO.N,GND*%
X120500000Y-44500000D03*
%TD*%
D10*
%TO.P,J12,2*%
%TO.N,Net-(J12-Pad2)*%
X114500000Y-44500000D03*
D11*
%TO.P,J12,1*%
%TO.N,GND*%
X109420000Y-44500000D03*
%TD*%
D10*
%TO.P,J11,2*%
%TO.N,Net-(J11-Pad2)*%
X103080000Y-44500000D03*
D11*
%TO.P,J11,1*%
%TO.N,GND*%
X98000000Y-44500000D03*
%TD*%
D10*
%TO.P,J10,2*%
%TO.N,Net-(J10-Pad2)*%
X92000000Y-44500000D03*
D11*
%TO.P,J10,1*%
%TO.N,GND*%
X86920000Y-44500000D03*
%TD*%
D10*
%TO.P,J9,2*%
%TO.N,Net-(J9-Pad2)*%
X80580000Y-44500000D03*
D11*
%TO.P,J9,1*%
%TO.N,GND*%
X75500000Y-44500000D03*
%TD*%
D10*
%TO.P,J8,2*%
%TO.N,Net-(J8-Pad2)*%
X69080000Y-44500000D03*
D11*
%TO.P,J8,1*%
%TO.N,GND*%
X64000000Y-44500000D03*
%TD*%
D10*
%TO.P,J6,2*%
%TO.N,GND*%
X55800000Y-44500000D03*
D11*
%TO.P,J6,1*%
X50720000Y-44500000D03*
%TD*%
D10*
%TO.P,J5,2*%
%TO.N,Net-(J4-Pad26)*%
X41580000Y-44500000D03*
D11*
%TO.P,J5,1*%
%TO.N,Net-(J4-Pad24)*%
X36500000Y-44500000D03*
%TD*%
D10*
%TO.P,J3,2*%
%TO.N,Net-(J3-Pad2)*%
X30580000Y-44500000D03*
D11*
%TO.P,J3,1*%
%TO.N,Net-(J3-Pad1)*%
X25500000Y-44500000D03*
%TD*%
D10*
%TO.P,J2,2*%
%TO.N,Net-(J2-Pad2)*%
X19580000Y-44500000D03*
D11*
%TO.P,J2,1*%
%TO.N,Net-(J2-Pad1)*%
X14500000Y-44500000D03*
%TD*%
D10*
%TO.P,J1,2*%
%TO.N,Net-(J1-Pad2)*%
X8580000Y-44500000D03*
D11*
%TO.P,J1,1*%
%TO.N,Net-(J1-Pad1)*%
X3500000Y-44500000D03*
%TD*%
D16*
%TO.N,GND*%
X143000000Y-75000000D03*
X149000000Y-75000000D03*
D17*
X53000000Y-86500000D03*
D16*
X52500000Y-58000000D03*
X55000000Y-61000000D03*
X5199998Y-88500000D03*
X5000000Y-92000000D03*
%TO.N,Net-(U1-Pad2)*%
X93000000Y-84500000D03*
X98000000Y-84500000D03*
%TO.N,Net-(U3-Pad2)*%
X179000000Y-70000000D03*
%TD*%
D18*
%TO.N,Net-(J1-Pad2)*%
X8580000Y-51380000D02*
X9000000Y-51800000D01*
X8580000Y-44500000D02*
X8580000Y-51380000D01*
X14480000Y-70480000D02*
X14480000Y-77960000D01*
X11500000Y-54300000D02*
X11500000Y-67500000D01*
X11500000Y-67500000D02*
X14480000Y-70480000D01*
X9000000Y-51800000D02*
X11500000Y-54300000D01*
%TO.N,Net-(J1-Pad1)*%
X3500000Y-44500000D02*
X3500000Y-51800000D01*
X11940000Y-73940000D02*
X11940000Y-77960000D01*
X6500000Y-68500000D02*
X11940000Y-73940000D01*
X6500000Y-54800000D02*
X6500000Y-68500000D01*
X3500000Y-51800000D02*
X6500000Y-54800000D01*
%TO.N,Net-(J2-Pad2)*%
X19580000Y-51720000D02*
X19500000Y-51800000D01*
X19580000Y-44500000D02*
X19580000Y-51720000D01*
X22200012Y-77859988D02*
X22100000Y-77960000D01*
X19500000Y-51800000D02*
X19500000Y-60000000D01*
X22100000Y-62600000D02*
X22100000Y-77960000D01*
X19500000Y-60000000D02*
X22100000Y-62600000D01*
%TO.N,Net-(J2-Pad1)*%
X14500000Y-44500000D02*
X14500000Y-51800000D01*
X17000000Y-77940000D02*
X17020000Y-77960000D01*
X17000000Y-54300000D02*
X17000000Y-77940000D01*
X14500000Y-51800000D02*
X17000000Y-54300000D01*
%TO.N,Net-(J3-Pad2)*%
X30580000Y-51720000D02*
X30500000Y-51800000D01*
X30580000Y-44500000D02*
X30580000Y-51720000D01*
X33000000Y-69000000D02*
X29720000Y-72280000D01*
X33000000Y-62000000D02*
X33000000Y-69000000D01*
X29720000Y-72280000D02*
X29720000Y-77960000D01*
X30500000Y-59500000D02*
X33000000Y-62000000D01*
X30500000Y-51800000D02*
X30500000Y-59500000D01*
%TO.N,Net-(J3-Pad1)*%
X25500000Y-44500000D02*
X25500000Y-51800000D01*
X25500000Y-51800000D02*
X25500000Y-58500000D01*
X25500000Y-58500000D02*
X27500000Y-60500000D01*
X27500000Y-60500000D02*
X27500000Y-69500000D01*
X24640000Y-72360000D02*
X24640000Y-77960000D01*
X27500000Y-69500000D02*
X24640000Y-72360000D01*
%TO.N,Net-(J4-Pad40)*%
X20800000Y-95800000D02*
X20800000Y-95040000D01*
X25500000Y-100500000D02*
X20800000Y-95800000D01*
X46000000Y-100500000D02*
X25500000Y-100500000D01*
X56000000Y-90500000D02*
X46000000Y-100500000D01*
X56000000Y-79000000D02*
X56000000Y-90500000D01*
X54960000Y-77960000D02*
X56000000Y-79000000D01*
X52580000Y-77960000D02*
X54960000Y-77960000D01*
X20800000Y-95040000D02*
X20800000Y-89540000D01*
%TO.N,GND*%
X143000000Y-75000000D02*
X149000000Y-75000000D01*
X125340000Y-74500000D02*
X125340000Y-70660000D01*
X132960000Y-71360000D02*
X132260000Y-70660000D01*
X132960000Y-74500000D02*
X132960000Y-71360000D01*
X50720000Y-44500000D02*
X55800000Y-44500000D01*
X55800000Y-44500000D02*
X64000000Y-44500000D01*
X10640000Y-87000000D02*
X10640000Y-89540000D01*
X52580000Y-86080000D02*
X53000000Y-86500000D01*
X52580000Y-80500000D02*
X52580000Y-86080000D01*
X125340000Y-70660000D02*
X129660000Y-70660000D01*
X129660000Y-70660000D02*
X132260000Y-70660000D01*
X132260000Y-70660000D02*
X141160000Y-70660000D01*
X141160000Y-73160000D02*
X143000000Y-75000000D01*
X141160000Y-70660000D02*
X141160000Y-73160000D01*
X64000000Y-44500000D02*
X64000000Y-40500000D01*
X64000000Y-40500000D02*
X64974990Y-39525010D01*
X187500000Y-39525010D02*
X187500000Y-44500000D01*
X175974990Y-39525010D02*
X175974990Y-44474990D01*
X175974990Y-44474990D02*
X176000000Y-44500000D01*
X175974990Y-39525010D02*
X187500000Y-39525010D01*
X164525010Y-44474990D02*
X164500000Y-44500000D01*
X164525010Y-39525010D02*
X164525010Y-44474990D01*
X164525010Y-39525010D02*
X175974990Y-39525010D01*
X153525010Y-44474990D02*
X153500000Y-44500000D01*
X153525010Y-39525010D02*
X153525010Y-44474990D01*
X153525010Y-39525010D02*
X164525010Y-39525010D01*
X142420000Y-39580000D02*
X142474990Y-39525010D01*
X142420000Y-44500000D02*
X142420000Y-39580000D01*
X142474990Y-39525010D02*
X153525010Y-39525010D01*
X131525010Y-44474990D02*
X131500000Y-44500000D01*
X131525010Y-39525010D02*
X131525010Y-44474990D01*
X131525010Y-39525010D02*
X142474990Y-39525010D01*
X120525010Y-44474990D02*
X120500000Y-44500000D01*
X120525010Y-39525010D02*
X120525010Y-44474990D01*
X120525010Y-39525010D02*
X131525010Y-39525010D01*
X109974990Y-39525010D02*
X120525010Y-39525010D01*
X109420000Y-40080000D02*
X109420000Y-44500000D01*
X109974990Y-39525010D02*
X109420000Y-40080000D01*
X97525010Y-44025010D02*
X98000000Y-44500000D01*
X97525010Y-39525010D02*
X97525010Y-44025010D01*
X97525010Y-39525010D02*
X109974990Y-39525010D01*
X86525010Y-44105010D02*
X86920000Y-44500000D01*
X86525010Y-39525010D02*
X86525010Y-44105010D01*
X86525010Y-39525010D02*
X97525010Y-39525010D01*
X75474990Y-44474990D02*
X75500000Y-44500000D01*
X64974990Y-39525010D02*
X75474990Y-39525010D01*
X75474990Y-39525010D02*
X75474990Y-44474990D01*
X75474990Y-39525010D02*
X86525010Y-39525010D01*
X50720000Y-56220000D02*
X52500000Y-58000000D01*
X50720000Y-44500000D02*
X50720000Y-56220000D01*
X52500000Y-58500000D02*
X55000000Y-61000000D01*
X52500000Y-58000000D02*
X52500000Y-58500000D01*
X6699998Y-87000000D02*
X5199998Y-88500000D01*
X10640000Y-87000000D02*
X6699998Y-87000000D01*
X5199998Y-91800002D02*
X5000000Y-92000000D01*
X5199998Y-88500000D02*
X5199998Y-91800002D01*
%TO.N,Net-(J4-Pad38)*%
X24500000Y-102500000D02*
X18260000Y-96260000D01*
X52500000Y-102500000D02*
X24500000Y-102500000D01*
X18260000Y-96260000D02*
X18260000Y-95040000D01*
X58000000Y-97000000D02*
X52500000Y-102500000D01*
X57000000Y-72000000D02*
X58000000Y-73000000D01*
X50500000Y-72000000D02*
X57000000Y-72000000D01*
X58000000Y-73000000D02*
X58000000Y-97000000D01*
X50040000Y-72460000D02*
X50500000Y-72000000D01*
X50040000Y-77960000D02*
X50040000Y-72460000D01*
X18260000Y-95040000D02*
X18260000Y-89540000D01*
%TO.N,Net-(J4-Pad37)*%
X23340000Y-95840000D02*
X23340000Y-89540000D01*
X26000000Y-98500000D02*
X23340000Y-95840000D01*
X44500000Y-98500000D02*
X26000000Y-98500000D01*
X50040000Y-92960000D02*
X44500000Y-98500000D01*
X50040000Y-80500000D02*
X50040000Y-92960000D01*
%TO.N,Net-(J4-Pad36)*%
X54000000Y-104500000D02*
X23500000Y-104500000D01*
X60500000Y-98000000D02*
X54000000Y-104500000D01*
X60500000Y-71000000D02*
X60500000Y-98000000D01*
X15720000Y-96720000D02*
X15720000Y-95040000D01*
X23500000Y-104500000D02*
X15720000Y-96720000D01*
X59299991Y-69799991D02*
X60500000Y-71000000D01*
X49200009Y-69799991D02*
X59299991Y-69799991D01*
X47500000Y-71500000D02*
X49200009Y-69799991D01*
X47500000Y-77960000D02*
X47500000Y-71500000D01*
X15720000Y-95040000D02*
X15720000Y-89540000D01*
%TO.N,Net-(J4-Pad35)*%
X27340000Y-96500000D02*
X25880000Y-95040000D01*
X42500000Y-96500000D02*
X27340000Y-96500000D01*
X47500000Y-91500000D02*
X42500000Y-96500000D01*
X25880000Y-95040000D02*
X25880000Y-89540000D01*
X47500000Y-80500000D02*
X47500000Y-91500000D01*
%TO.N,Net-(J4-Pad33)*%
X28420000Y-93420000D02*
X28420000Y-89540000D01*
X29500000Y-94500000D02*
X28420000Y-93420000D01*
X41000000Y-94500000D02*
X29500000Y-94500000D01*
X44960000Y-90540000D02*
X41000000Y-94500000D01*
X44960000Y-80500000D02*
X44960000Y-90540000D01*
%TO.N,Net-(J4-Pad32)*%
X55500000Y-106500000D02*
X22500000Y-106500000D01*
X13180000Y-97180000D02*
X13180000Y-95040000D01*
X64000000Y-98000000D02*
X55500000Y-106500000D01*
X64000000Y-70802929D02*
X64000000Y-98000000D01*
X61197071Y-68000000D02*
X64000000Y-70802929D01*
X46000000Y-68000000D02*
X61197071Y-68000000D01*
X42420000Y-71580000D02*
X46000000Y-68000000D01*
X22500000Y-106500000D02*
X13180000Y-97180000D01*
X42420000Y-77960000D02*
X42420000Y-71580000D01*
X13180000Y-95040000D02*
X13180000Y-89540000D01*
%TO.N,Net-(J4-Pad31)*%
X30960000Y-92500000D02*
X30960000Y-89540000D01*
X39500000Y-92500000D02*
X30960000Y-92500000D01*
X42420000Y-89580000D02*
X39500000Y-92500000D01*
X42420000Y-80500000D02*
X42420000Y-89580000D01*
%TO.N,Net-(J4-Pad29)*%
X30960000Y-85840000D02*
X30960000Y-87000000D01*
X33300000Y-83500000D02*
X30960000Y-85840000D01*
X38970000Y-83500000D02*
X33300000Y-83500000D01*
X39880000Y-82590000D02*
X38970000Y-83500000D01*
X39880000Y-80500000D02*
X39880000Y-82590000D01*
%TO.N,Net-(J4-Pad26)*%
X41580000Y-51720000D02*
X41500000Y-51800000D01*
X41580000Y-44500000D02*
X41580000Y-51720000D01*
X45000000Y-65000000D02*
X34800000Y-75200000D01*
X45000000Y-60500000D02*
X45000000Y-65000000D01*
X42000000Y-57500000D02*
X45000000Y-60500000D01*
X34800000Y-75200000D02*
X34800000Y-77960000D01*
X42000000Y-52000000D02*
X42000000Y-57500000D01*
%TO.N,Net-(J4-Pad24)*%
X36500000Y-44500000D02*
X36500000Y-51800000D01*
X36500000Y-51800000D02*
X36500000Y-57500000D01*
X36500000Y-57500000D02*
X39000000Y-60000000D01*
X39000000Y-60000000D02*
X39000000Y-67000000D01*
X32260000Y-73740000D02*
X32260000Y-77960000D01*
X39000000Y-67000000D02*
X32260000Y-73740000D01*
%TO.N,Net-(J4-Pad23)*%
X28420000Y-87000000D02*
X28420000Y-85834401D01*
X32260000Y-81994401D02*
X32260000Y-80500000D01*
X28420000Y-85834401D02*
X32260000Y-81994401D01*
%TO.N,Net-(J4-Pad21)*%
X29720000Y-81980000D02*
X29720000Y-80500000D01*
X25880000Y-85820000D02*
X29720000Y-81980000D01*
X25880000Y-87000000D02*
X25880000Y-85820000D01*
%TO.N,Net-(J4-Pad19)*%
X27180000Y-81820000D02*
X27180000Y-80500000D01*
X23340000Y-85660000D02*
X27180000Y-81820000D01*
X23340000Y-87000000D02*
X23340000Y-85660000D01*
%TO.N,+3V3*%
X192500000Y-64500000D02*
X181000000Y-64500000D01*
X92000000Y-64500000D02*
X103500000Y-64500000D01*
X136500000Y-64500000D02*
X147500000Y-64500000D01*
X183500000Y-64500000D02*
X183500000Y-74500000D01*
X181000000Y-64500000D02*
X183500000Y-64500000D01*
X103500000Y-79500000D02*
X107000000Y-83000000D01*
X103500000Y-64500000D02*
X103500000Y-79500000D01*
X92000000Y-68500000D02*
X92000000Y-64500000D01*
X93500000Y-70000000D02*
X92000000Y-68500000D01*
X93500000Y-74500000D02*
X93500000Y-70000000D01*
X131500000Y-83000000D02*
X135000000Y-83000000D01*
X107000000Y-83000000D02*
X131500000Y-83000000D01*
X131500000Y-83000000D02*
X132000000Y-83000000D01*
X145899998Y-83000000D02*
X147500000Y-83000000D01*
X135500000Y-82500000D02*
X135000000Y-83000000D01*
X135500000Y-74500000D02*
X135500000Y-82500000D01*
X173340000Y-74500000D02*
X173340000Y-75440002D01*
X149000000Y-83000000D02*
X149100002Y-83000000D01*
X147500000Y-83000000D02*
X149000000Y-83000000D01*
X135000000Y-83000000D02*
X147500000Y-83000000D01*
X183500000Y-79000000D02*
X183500000Y-74500000D01*
X179500000Y-83000000D02*
X183500000Y-79000000D01*
X172500000Y-83000000D02*
X175000000Y-83000000D01*
X175000000Y-83000000D02*
X179500000Y-83000000D01*
X174000000Y-83000000D02*
X175000000Y-83000000D01*
X173000000Y-83000000D02*
X172500000Y-83000000D01*
X172500000Y-83000000D02*
X149000000Y-83000000D01*
X173340000Y-82660000D02*
X173000000Y-83000000D01*
X136300000Y-64700000D02*
X136500000Y-64500000D01*
X147500000Y-64500000D02*
X155500000Y-64500000D01*
X130500000Y-64500000D02*
X136500000Y-64500000D01*
X109500000Y-64500000D02*
X103500000Y-64500000D01*
X91800000Y-64700000D02*
X92000000Y-64500000D01*
X84000000Y-64700000D02*
X91800000Y-64700000D01*
X173000000Y-64500000D02*
X181000000Y-64500000D01*
X3500000Y-64500000D02*
X3500000Y-67500000D01*
X3500000Y-67500000D02*
X1000000Y-70000000D01*
X4320000Y-80500000D02*
X1000000Y-80500000D01*
X1000000Y-80500000D02*
X1000000Y-70000000D01*
X173340000Y-76160000D02*
X173340000Y-76050001D01*
X173340000Y-74500000D02*
X173340000Y-76160000D01*
X173340000Y-76160000D02*
X173340000Y-82660000D01*
X154000000Y-76500000D02*
X147500000Y-83000000D01*
X147500000Y-66000000D02*
X154000000Y-72500000D01*
X154000000Y-72500000D02*
X154000000Y-76500000D01*
X147500000Y-64500000D02*
X147500000Y-66000000D01*
%TO.N,Net-(J4-Pad15)*%
X22100000Y-80500000D02*
X22100000Y-84354402D01*
X20800000Y-85654402D02*
X22100000Y-84354402D01*
X20800000Y-87000000D02*
X20800000Y-85654402D01*
%TO.N,Net-(J4-Pad13)*%
X18260000Y-85648804D02*
X18260000Y-87000000D01*
X19500000Y-84408804D02*
X18260000Y-85648804D01*
X19500000Y-80560000D02*
X19500000Y-84408804D01*
X19560000Y-80500000D02*
X19500000Y-80560000D01*
%TO.N,Net-(J4-Pad11)*%
X17000000Y-80520000D02*
X17000000Y-84363206D01*
X17020000Y-80500000D02*
X17000000Y-80520000D01*
X15720000Y-85643206D02*
X17000000Y-84363206D01*
X15720000Y-87000000D02*
X15720000Y-85643206D01*
%TO.N,Net-(J4-Pad7)*%
X11940000Y-83740000D02*
X13100000Y-84900000D01*
X11940000Y-80500000D02*
X11940000Y-83740000D01*
X13100000Y-86920000D02*
X13180000Y-87000000D01*
X13100000Y-84900000D02*
X13100000Y-86920000D01*
%TO.N,+5V*%
X4320000Y-77960000D02*
X6860000Y-77960000D01*
%TO.N,Net-(J4-Pad3)*%
X83340000Y-74500000D02*
X85880000Y-74500000D01*
X1999999Y-87220003D02*
X6860000Y-82360002D01*
X1999999Y-108500000D02*
X1999999Y-87220003D01*
X58500000Y-108500000D02*
X1999999Y-108500000D01*
X6860000Y-82360002D02*
X6860000Y-80500000D01*
X85880000Y-81120000D02*
X58500000Y-108500000D01*
X85880000Y-74500000D02*
X85880000Y-81120000D01*
%TO.N,Net-(J8-Pad2)*%
X66500000Y-52000000D02*
X63000000Y-52000000D01*
X66500000Y-74000000D02*
X66500000Y-52000000D01*
X70640000Y-74500000D02*
X67000000Y-74500000D01*
X67000000Y-74500000D02*
X66500000Y-74000000D01*
X61000000Y-52000000D02*
X63000000Y-52000000D01*
X69080000Y-49420000D02*
X69080000Y-44500000D01*
X66500000Y-52000000D02*
X69080000Y-49420000D01*
%TO.N,Net-(J9-Pad2)*%
X80580000Y-51920000D02*
X80500000Y-52000000D01*
X80580000Y-44500000D02*
X80580000Y-51920000D01*
X73180000Y-70820000D02*
X73180000Y-74500000D01*
X70500000Y-68140000D02*
X73180000Y-70820000D01*
X70500000Y-56000000D02*
X70500000Y-68140000D01*
X74500000Y-52000000D02*
X70500000Y-56000000D01*
X80500000Y-52000000D02*
X74500000Y-52000000D01*
X80500000Y-52000000D02*
X84000000Y-52000000D01*
%TO.N,Net-(J10-Pad2)*%
X92000000Y-44500000D02*
X92000000Y-51800000D01*
X92000000Y-54940000D02*
X92000000Y-51800000D01*
X91720000Y-55220000D02*
X92000000Y-54940000D01*
X75720000Y-74500000D02*
X75720000Y-68720000D01*
X75720000Y-68720000D02*
X74000000Y-67000000D01*
X74000000Y-57440000D02*
X76220000Y-55220000D01*
X74000000Y-67000000D02*
X74000000Y-57440000D01*
X76220000Y-55220000D02*
X91720000Y-55220000D01*
%TO.N,Net-(J11-Pad2)*%
X103080000Y-51380000D02*
X103500000Y-51800000D01*
X103080000Y-44500000D02*
X103080000Y-51380000D01*
X78000000Y-74240000D02*
X78260000Y-74500000D01*
X82500000Y-58500000D02*
X78000000Y-63000000D01*
X101500000Y-58500000D02*
X82500000Y-58500000D01*
X103500000Y-56500000D02*
X101500000Y-58500000D01*
X78000000Y-63000000D02*
X78000000Y-74240000D01*
X103500000Y-51800000D02*
X103500000Y-56500000D01*
%TO.N,Net-(J12-Pad2)*%
X109500000Y-51800000D02*
X112300000Y-51800000D01*
X112300000Y-51800000D02*
X112640000Y-52140000D01*
X112300000Y-51800000D02*
X114300000Y-51800000D01*
X114500000Y-51600000D02*
X114500000Y-44500000D01*
X114300000Y-51800000D02*
X114500000Y-51600000D01*
X112500000Y-74360000D02*
X112640000Y-74500000D01*
X112500000Y-52000000D02*
X112300000Y-51800000D01*
X112500000Y-54500000D02*
X112500000Y-52000000D01*
X112500000Y-53600000D02*
X112500000Y-54500000D01*
X112500000Y-54500000D02*
X112500000Y-74360000D01*
%TO.N,Net-(J13-Pad2)*%
X125500000Y-51800000D02*
X128500000Y-51800000D01*
X125580000Y-51720000D02*
X125500000Y-51800000D01*
X125580000Y-44500000D02*
X125580000Y-51720000D01*
X128500000Y-51800000D02*
X130500000Y-51800000D01*
X125700000Y-51800000D02*
X128500000Y-51800000D01*
X115180000Y-62320000D02*
X125700000Y-51800000D01*
X115180000Y-74500000D02*
X115180000Y-62320000D01*
%TO.N,Net-(J14-Pad2)*%
X136580000Y-51720000D02*
X136500000Y-51800000D01*
X136580000Y-44500000D02*
X136580000Y-51720000D01*
X117720000Y-65280000D02*
X117720000Y-74500000D01*
X128000000Y-55000000D02*
X117720000Y-65280000D01*
X136500000Y-55000000D02*
X128000000Y-55000000D01*
X136500000Y-51800000D02*
X136500000Y-55000000D01*
%TO.N,Net-(J15-Pad2)*%
X147500000Y-44500000D02*
X147500000Y-51800000D01*
X127000000Y-61000000D02*
X120260000Y-67740000D01*
X142000000Y-61000000D02*
X127000000Y-61000000D01*
X120260000Y-67740000D02*
X120260000Y-74500000D01*
X147500000Y-55500000D02*
X142000000Y-61000000D01*
X147500000Y-51800000D02*
X147500000Y-55500000D01*
%TO.N,Net-(J16-Pad2)*%
X158580000Y-51720000D02*
X158500000Y-51800000D01*
X158580000Y-44500000D02*
X158580000Y-51720000D01*
X160350000Y-53650000D02*
X160600000Y-53900000D01*
X161000000Y-54300000D02*
X160350000Y-53650000D01*
X161000000Y-74140000D02*
X161000000Y-54300000D01*
X160640000Y-74500000D02*
X161000000Y-74140000D01*
X155500000Y-51800000D02*
X158500000Y-51800000D01*
X158500000Y-51800000D02*
X160350000Y-53650000D01*
%TO.N,Net-(J17-Pad2)*%
X163500000Y-74500000D02*
X163180000Y-74500000D01*
X163180000Y-74500000D02*
X163425998Y-74500000D01*
X163425998Y-74500000D02*
X163500000Y-74425998D01*
X169300000Y-55500000D02*
X173000000Y-51800000D01*
X163180000Y-61620000D02*
X169300000Y-55500000D01*
X163180000Y-74500000D02*
X163180000Y-61620000D01*
X169580000Y-48380000D02*
X173000000Y-51800000D01*
X169580000Y-44500000D02*
X169580000Y-48380000D01*
%TO.N,Net-(J18-Pad2)*%
X181080000Y-51720000D02*
X181000000Y-51800000D01*
X181080000Y-44500000D02*
X181080000Y-51720000D01*
X165720000Y-62280000D02*
X165720000Y-74500000D01*
X176200000Y-51800000D02*
X165720000Y-62280000D01*
X181000000Y-51800000D02*
X176200000Y-51800000D01*
%TO.N,Net-(J19-Pad2)*%
X192580000Y-51720000D02*
X192500000Y-51800000D01*
X192580000Y-44500000D02*
X192580000Y-51720000D01*
X168505998Y-74500000D02*
X168260000Y-74500000D01*
X174779998Y-57000000D02*
X167999999Y-63779999D01*
X191000000Y-57000000D02*
X174779998Y-57000000D01*
X192500000Y-55500000D02*
X191000000Y-57000000D01*
X192500000Y-51800000D02*
X192500000Y-55500000D01*
X167999999Y-63779999D02*
X167999999Y-74239999D01*
%TO.N,Net-(U1-Pad2)*%
X91585780Y-83085780D02*
X93000000Y-84500000D01*
X90960000Y-82460000D02*
X91585780Y-83085780D01*
X90960000Y-74500000D02*
X90960000Y-82460000D01*
X93000000Y-84500000D02*
X98000000Y-84500000D01*
X90000000Y-92500000D02*
X98000000Y-84500000D01*
X90000000Y-96500000D02*
X90000000Y-92500000D01*
%TO.N,Net-(U3-Pad2)*%
X180960000Y-71960000D02*
X179000000Y-70000000D01*
X180960000Y-74500000D02*
X180960000Y-71960000D01*
%TD*%
M02*
