%FSLAX45Y45*%
G04 Gerber Fmt 4.5, Leading zero omitted, Abs format (unit mm)*
G04 Created by KiCad (PCBNEW 5.99.0+really5.1.10+dfsg1-1) date 2022-05-12 15:51:28*
%MOMM*%
%LPD*%
G01*
G04 APERTURE LIST*
%TA.AperFunction,Profile*%
%ADD10C,0.050000*%
%TD*%
%ADD11C,0.200000*%
%ADD12C,0.300000*%
G04 APERTURE END LIST*
D10*
X19700000Y-10950000D02*
X19700000Y-3800000D01*
X-150000Y-10950000D02*
X19700000Y-10950000D01*
X-150000Y-3800000D02*
X-150000Y-10950000D01*
X-150000Y-3800000D02*
X19700000Y-3800000D01*
D11*
X310000Y-5140000D02*
X390000Y-5220000D01*
X390000Y-5140000D02*
X310000Y-5220000D01*
X310000Y-6410000D02*
X390000Y-6490000D01*
X390000Y-6410000D02*
X310000Y-6490000D01*
X860000Y-5140000D02*
X940000Y-5220000D01*
X940000Y-5140000D02*
X860000Y-5220000D01*
X860000Y-6410000D02*
X940000Y-6490000D01*
X940000Y-6410000D02*
X860000Y-6490000D01*
X1410000Y-5140000D02*
X1490000Y-5220000D01*
X1490000Y-5140000D02*
X1410000Y-5220000D01*
X1410000Y-6410000D02*
X1490000Y-6490000D01*
X1490000Y-6410000D02*
X1410000Y-6490000D01*
X1910000Y-5140000D02*
X1990000Y-5220000D01*
X1990000Y-5140000D02*
X1910000Y-5220000D01*
X1910000Y-6410000D02*
X1990000Y-6490000D01*
X1990000Y-6410000D02*
X1910000Y-6490000D01*
X2510000Y-5140000D02*
X2590000Y-5220000D01*
X2590000Y-5140000D02*
X2510000Y-5220000D01*
X2510000Y-6410000D02*
X2590000Y-6490000D01*
X2590000Y-6410000D02*
X2510000Y-6490000D01*
X3010000Y-5140000D02*
X3090000Y-5220000D01*
X3090000Y-5140000D02*
X3010000Y-5220000D01*
X3010000Y-6410000D02*
X3090000Y-6490000D01*
X3090000Y-6410000D02*
X3010000Y-6490000D01*
X3610000Y-5140000D02*
X3690000Y-5220000D01*
X3690000Y-5140000D02*
X3610000Y-5220000D01*
X3610000Y-6410000D02*
X3690000Y-6490000D01*
X3690000Y-6410000D02*
X3610000Y-6490000D01*
X4160000Y-5160000D02*
X4240000Y-5240000D01*
X4240000Y-5160000D02*
X4160000Y-5240000D01*
X4160000Y-6430000D02*
X4240000Y-6510000D01*
X4240000Y-6430000D02*
X4160000Y-6510000D01*
X6060000Y-5160000D02*
X6140000Y-5240000D01*
X6140000Y-5160000D02*
X6060000Y-5240000D01*
X6060000Y-6430000D02*
X6140000Y-6510000D01*
X6140000Y-6430000D02*
X6060000Y-6510000D01*
X8360000Y-5160000D02*
X8440000Y-5240000D01*
X8440000Y-5160000D02*
X8360000Y-5240000D01*
X8360000Y-6430000D02*
X8440000Y-6510000D01*
X8440000Y-6430000D02*
X8360000Y-6510000D01*
X9160000Y-5140000D02*
X9240000Y-5220000D01*
X9240000Y-5140000D02*
X9160000Y-5220000D01*
X9160000Y-6410000D02*
X9240000Y-6490000D01*
X9240000Y-6410000D02*
X9160000Y-6490000D01*
X10310000Y-5140000D02*
X10390000Y-5220000D01*
X10390000Y-5140000D02*
X10310000Y-5220000D01*
X10310000Y-6410000D02*
X10390000Y-6490000D01*
X10390000Y-6410000D02*
X10310000Y-6490000D01*
X10910000Y-5140000D02*
X10990000Y-5220000D01*
X10990000Y-5140000D02*
X10910000Y-5220000D01*
X10910000Y-6410000D02*
X10990000Y-6490000D01*
X10990000Y-6410000D02*
X10910000Y-6490000D01*
X13010000Y-5140000D02*
X13090000Y-5220000D01*
X13090000Y-5140000D02*
X13010000Y-5220000D01*
X13010000Y-6410000D02*
X13090000Y-6490000D01*
X13090000Y-6410000D02*
X13010000Y-6490000D01*
X13610000Y-5140000D02*
X13690000Y-5220000D01*
X13690000Y-5140000D02*
X13610000Y-5220000D01*
X13610000Y-6410000D02*
X13690000Y-6490000D01*
X13690000Y-6410000D02*
X13610000Y-6490000D01*
X14710000Y-5140000D02*
X14790000Y-5220000D01*
X14790000Y-5140000D02*
X14710000Y-5220000D01*
X14710000Y-6410000D02*
X14790000Y-6490000D01*
X14790000Y-6410000D02*
X14710000Y-6490000D01*
X15510000Y-5140000D02*
X15590000Y-5220000D01*
X15590000Y-5140000D02*
X15510000Y-5220000D01*
X15510000Y-6410000D02*
X15590000Y-6490000D01*
X15590000Y-6410000D02*
X15510000Y-6490000D01*
X17260000Y-5140000D02*
X17340000Y-5220000D01*
X17340000Y-5140000D02*
X17260000Y-5220000D01*
X17260000Y-6410000D02*
X17340000Y-6490000D01*
X17340000Y-6410000D02*
X17260000Y-6490000D01*
X18060000Y-5140000D02*
X18140000Y-5220000D01*
X18140000Y-5140000D02*
X18060000Y-5220000D01*
X18060000Y-6410000D02*
X18140000Y-6490000D01*
X18140000Y-6410000D02*
X18060000Y-6490000D01*
X19210000Y-5140000D02*
X19290000Y-5220000D01*
X19290000Y-5140000D02*
X19210000Y-5220000D01*
X19210000Y-6410000D02*
X19290000Y-6490000D01*
X19290000Y-6410000D02*
X19210000Y-6490000D01*
X482000Y-7796000D02*
G75*
G03*
X482000Y-7796000I-50000J0D01*
G01*
X482000Y-8050000D02*
G75*
G03*
X482000Y-8050000I-50000J0D01*
G01*
X736000Y-7796000D02*
G75*
G03*
X736000Y-7796000I-50000J0D01*
G01*
X736000Y-8050000D02*
G75*
G03*
X736000Y-8050000I-50000J0D01*
G01*
X990000Y-7796000D02*
G75*
G03*
X990000Y-7796000I-50000J0D01*
G01*
X990000Y-8050000D02*
G75*
G03*
X990000Y-8050000I-50000J0D01*
G01*
X1114000Y-8700000D02*
G75*
G03*
X1114000Y-8700000I-50000J0D01*
G01*
X1114000Y-8954000D02*
G75*
G03*
X1114000Y-8954000I-50000J0D01*
G01*
X1244000Y-7796000D02*
G75*
G03*
X1244000Y-7796000I-50000J0D01*
G01*
X1244000Y-8050000D02*
G75*
G03*
X1244000Y-8050000I-50000J0D01*
G01*
X1368000Y-8700000D02*
G75*
G03*
X1368000Y-8700000I-50000J0D01*
G01*
X1368000Y-8954000D02*
G75*
G03*
X1368000Y-8954000I-50000J0D01*
G01*
X1498000Y-7796000D02*
G75*
G03*
X1498000Y-7796000I-50000J0D01*
G01*
X1498000Y-8050000D02*
G75*
G03*
X1498000Y-8050000I-50000J0D01*
G01*
X1622000Y-8700000D02*
G75*
G03*
X1622000Y-8700000I-50000J0D01*
G01*
X1622000Y-8954000D02*
G75*
G03*
X1622000Y-8954000I-50000J0D01*
G01*
X1752000Y-7796000D02*
G75*
G03*
X1752000Y-7796000I-50000J0D01*
G01*
X1752000Y-8050000D02*
G75*
G03*
X1752000Y-8050000I-50000J0D01*
G01*
X1876000Y-8700000D02*
G75*
G03*
X1876000Y-8700000I-50000J0D01*
G01*
X1876000Y-8954000D02*
G75*
G03*
X1876000Y-8954000I-50000J0D01*
G01*
X2006000Y-7796000D02*
G75*
G03*
X2006000Y-7796000I-50000J0D01*
G01*
X2006000Y-8050000D02*
G75*
G03*
X2006000Y-8050000I-50000J0D01*
G01*
X2130000Y-8700000D02*
G75*
G03*
X2130000Y-8700000I-50000J0D01*
G01*
X2130000Y-8954000D02*
G75*
G03*
X2130000Y-8954000I-50000J0D01*
G01*
X2260000Y-7796000D02*
G75*
G03*
X2260000Y-7796000I-50000J0D01*
G01*
X2260000Y-8050000D02*
G75*
G03*
X2260000Y-8050000I-50000J0D01*
G01*
X2384000Y-8700000D02*
G75*
G03*
X2384000Y-8700000I-50000J0D01*
G01*
X2384000Y-8954000D02*
G75*
G03*
X2384000Y-8954000I-50000J0D01*
G01*
X2514000Y-7796000D02*
G75*
G03*
X2514000Y-7796000I-50000J0D01*
G01*
X2514000Y-8050000D02*
G75*
G03*
X2514000Y-8050000I-50000J0D01*
G01*
X2638000Y-8700000D02*
G75*
G03*
X2638000Y-8700000I-50000J0D01*
G01*
X2638000Y-8954000D02*
G75*
G03*
X2638000Y-8954000I-50000J0D01*
G01*
X2768000Y-7796000D02*
G75*
G03*
X2768000Y-7796000I-50000J0D01*
G01*
X2768000Y-8050000D02*
G75*
G03*
X2768000Y-8050000I-50000J0D01*
G01*
X2892000Y-8700000D02*
G75*
G03*
X2892000Y-8700000I-50000J0D01*
G01*
X2892000Y-8954000D02*
G75*
G03*
X2892000Y-8954000I-50000J0D01*
G01*
X3022000Y-7796000D02*
G75*
G03*
X3022000Y-7796000I-50000J0D01*
G01*
X3022000Y-8050000D02*
G75*
G03*
X3022000Y-8050000I-50000J0D01*
G01*
X3146000Y-8700000D02*
G75*
G03*
X3146000Y-8700000I-50000J0D01*
G01*
X3146000Y-8954000D02*
G75*
G03*
X3146000Y-8954000I-50000J0D01*
G01*
X3276000Y-7796000D02*
G75*
G03*
X3276000Y-7796000I-50000J0D01*
G01*
X3276000Y-8050000D02*
G75*
G03*
X3276000Y-8050000I-50000J0D01*
G01*
X3400000Y-8700000D02*
G75*
G03*
X3400000Y-8700000I-50000J0D01*
G01*
X3400000Y-8954000D02*
G75*
G03*
X3400000Y-8954000I-50000J0D01*
G01*
X3530000Y-7796000D02*
G75*
G03*
X3530000Y-7796000I-50000J0D01*
G01*
X3530000Y-8050000D02*
G75*
G03*
X3530000Y-8050000I-50000J0D01*
G01*
X3784000Y-7796000D02*
G75*
G03*
X3784000Y-7796000I-50000J0D01*
G01*
X3784000Y-8050000D02*
G75*
G03*
X3784000Y-8050000I-50000J0D01*
G01*
X4038000Y-7796000D02*
G75*
G03*
X4038000Y-7796000I-50000J0D01*
G01*
X4038000Y-8050000D02*
G75*
G03*
X4038000Y-8050000I-50000J0D01*
G01*
X4292000Y-7796000D02*
G75*
G03*
X4292000Y-7796000I-50000J0D01*
G01*
X4292000Y-8050000D02*
G75*
G03*
X4292000Y-8050000I-50000J0D01*
G01*
X4546000Y-7796000D02*
G75*
G03*
X4546000Y-7796000I-50000J0D01*
G01*
X4546000Y-8050000D02*
G75*
G03*
X4546000Y-8050000I-50000J0D01*
G01*
X4800000Y-7796000D02*
G75*
G03*
X4800000Y-7796000I-50000J0D01*
G01*
X4800000Y-8050000D02*
G75*
G03*
X4800000Y-8050000I-50000J0D01*
G01*
X5054000Y-7796000D02*
G75*
G03*
X5054000Y-7796000I-50000J0D01*
G01*
X5054000Y-8050000D02*
G75*
G03*
X5054000Y-8050000I-50000J0D01*
G01*
X5308000Y-7796000D02*
G75*
G03*
X5308000Y-7796000I-50000J0D01*
G01*
X5308000Y-8050000D02*
G75*
G03*
X5308000Y-8050000I-50000J0D01*
G01*
X7114000Y-7450000D02*
G75*
G03*
X7114000Y-7450000I-50000J0D01*
G01*
X7368000Y-7450000D02*
G75*
G03*
X7368000Y-7450000I-50000J0D01*
G01*
X7622000Y-7450000D02*
G75*
G03*
X7622000Y-7450000I-50000J0D01*
G01*
X7876000Y-7450000D02*
G75*
G03*
X7876000Y-7450000I-50000J0D01*
G01*
X8130000Y-7450000D02*
G75*
G03*
X8130000Y-7450000I-50000J0D01*
G01*
X8384000Y-7450000D02*
G75*
G03*
X8384000Y-7450000I-50000J0D01*
G01*
X8638000Y-7450000D02*
G75*
G03*
X8638000Y-7450000I-50000J0D01*
G01*
X8892000Y-7450000D02*
G75*
G03*
X8892000Y-7450000I-50000J0D01*
G01*
X9146000Y-7450000D02*
G75*
G03*
X9146000Y-7450000I-50000J0D01*
G01*
X9400000Y-7450000D02*
G75*
G03*
X9400000Y-7450000I-50000J0D01*
G01*
X11314000Y-7450000D02*
G75*
G03*
X11314000Y-7450000I-50000J0D01*
G01*
X11568000Y-7450000D02*
G75*
G03*
X11568000Y-7450000I-50000J0D01*
G01*
X11822000Y-7450000D02*
G75*
G03*
X11822000Y-7450000I-50000J0D01*
G01*
X12076000Y-7450000D02*
G75*
G03*
X12076000Y-7450000I-50000J0D01*
G01*
X12330000Y-7450000D02*
G75*
G03*
X12330000Y-7450000I-50000J0D01*
G01*
X12584000Y-7450000D02*
G75*
G03*
X12584000Y-7450000I-50000J0D01*
G01*
X12838000Y-7450000D02*
G75*
G03*
X12838000Y-7450000I-50000J0D01*
G01*
X13092000Y-7450000D02*
G75*
G03*
X13092000Y-7450000I-50000J0D01*
G01*
X13346000Y-7450000D02*
G75*
G03*
X13346000Y-7450000I-50000J0D01*
G01*
X13600000Y-7450000D02*
G75*
G03*
X13600000Y-7450000I-50000J0D01*
G01*
X16114000Y-7450000D02*
G75*
G03*
X16114000Y-7450000I-50000J0D01*
G01*
X16368000Y-7450000D02*
G75*
G03*
X16368000Y-7450000I-50000J0D01*
G01*
X16622000Y-7450000D02*
G75*
G03*
X16622000Y-7450000I-50000J0D01*
G01*
X16876000Y-7450000D02*
G75*
G03*
X16876000Y-7450000I-50000J0D01*
G01*
X17130000Y-7450000D02*
G75*
G03*
X17130000Y-7450000I-50000J0D01*
G01*
X17384000Y-7450000D02*
G75*
G03*
X17384000Y-7450000I-50000J0D01*
G01*
X17638000Y-7450000D02*
G75*
G03*
X17638000Y-7450000I-50000J0D01*
G01*
X17892000Y-7450000D02*
G75*
G03*
X17892000Y-7450000I-50000J0D01*
G01*
X18146000Y-7450000D02*
G75*
G03*
X18146000Y-7450000I-50000J0D01*
G01*
X18400000Y-7450000D02*
G75*
G03*
X18400000Y-7450000I-50000J0D01*
G01*
X5300000Y-8590000D02*
X5300000Y-8710000D01*
X5240000Y-8650000D02*
X5360000Y-8650000D01*
X545962Y-9245962D02*
X545962Y-9154038D01*
X454038Y-9154038D01*
X454038Y-9245962D01*
X545962Y-9245962D01*
X565962Y-8895962D02*
X565962Y-8804038D01*
X474037Y-8804038D01*
X474037Y-8895962D01*
X565962Y-8895962D01*
X5295962Y-5845962D02*
X5295962Y-5754038D01*
X5204038Y-5754038D01*
X5204038Y-5845962D01*
X5295962Y-5845962D01*
X5545962Y-6145962D02*
X5545962Y-6054038D01*
X5454038Y-6054038D01*
X5454038Y-6145962D01*
X5545962Y-6145962D01*
X9345962Y-8495962D02*
X9345962Y-8404038D01*
X9254038Y-8404038D01*
X9254038Y-8495962D01*
X9345962Y-8495962D01*
X9845962Y-8495962D02*
X9845962Y-8404038D01*
X9754038Y-8404038D01*
X9754038Y-8495962D01*
X9845962Y-8495962D01*
X14345962Y-7545962D02*
X14345962Y-7454038D01*
X14254038Y-7454038D01*
X14254038Y-7545962D01*
X14345962Y-7545962D01*
X14945962Y-7545962D02*
X14945962Y-7454038D01*
X14854038Y-7454038D01*
X14854038Y-7545962D01*
X14945962Y-7545962D01*
X17945962Y-7045962D02*
X17945962Y-6954038D01*
X17854038Y-6954038D01*
X17854038Y-7045962D01*
X17945962Y-7045962D01*
X350000Y-4526000D02*
X426000Y-4450000D01*
X350000Y-4374000D01*
X274000Y-4450000D01*
X350000Y-4526000D01*
X858000Y-4526000D02*
X934000Y-4450000D01*
X858000Y-4374000D01*
X782000Y-4450000D01*
X858000Y-4526000D01*
X1450000Y-4526000D02*
X1526000Y-4450000D01*
X1450000Y-4374000D01*
X1374000Y-4450000D01*
X1450000Y-4526000D01*
X1958000Y-4526000D02*
X2034000Y-4450000D01*
X1958000Y-4374000D01*
X1882000Y-4450000D01*
X1958000Y-4526000D01*
X2550000Y-4526000D02*
X2626000Y-4450000D01*
X2550000Y-4374000D01*
X2474000Y-4450000D01*
X2550000Y-4526000D01*
X3058000Y-4526000D02*
X3134000Y-4450000D01*
X3058000Y-4374000D01*
X2982000Y-4450000D01*
X3058000Y-4526000D01*
X3650000Y-4526000D02*
X3726000Y-4450000D01*
X3650000Y-4374000D01*
X3574000Y-4450000D01*
X3650000Y-4526000D01*
X4158000Y-4526000D02*
X4234000Y-4450000D01*
X4158000Y-4374000D01*
X4082000Y-4450000D01*
X4158000Y-4526000D01*
X5072000Y-4526000D02*
X5148000Y-4450000D01*
X5072000Y-4374000D01*
X4996000Y-4450000D01*
X5072000Y-4526000D01*
X5580000Y-4526000D02*
X5656000Y-4450000D01*
X5580000Y-4374000D01*
X5504000Y-4450000D01*
X5580000Y-4526000D01*
X6400000Y-4526000D02*
X6476000Y-4450000D01*
X6400000Y-4374000D01*
X6324000Y-4450000D01*
X6400000Y-4526000D01*
X6908000Y-4526000D02*
X6984000Y-4450000D01*
X6908000Y-4374000D01*
X6832000Y-4450000D01*
X6908000Y-4526000D01*
X7550000Y-4526000D02*
X7626000Y-4450000D01*
X7550000Y-4374000D01*
X7474000Y-4450000D01*
X7550000Y-4526000D01*
X8058000Y-4526000D02*
X8134000Y-4450000D01*
X8058000Y-4374000D01*
X7982000Y-4450000D01*
X8058000Y-4526000D01*
X8492000Y-9726000D02*
X8568000Y-9650000D01*
X8492000Y-9574000D01*
X8416000Y-9650000D01*
X8492000Y-9726000D01*
X8692000Y-4526000D02*
X8768000Y-4450000D01*
X8692000Y-4374000D01*
X8616000Y-4450000D01*
X8692000Y-4526000D01*
X9000000Y-9726000D02*
X9076000Y-9650000D01*
X9000000Y-9574000D01*
X8924000Y-9650000D01*
X9000000Y-9726000D01*
X9200000Y-4526000D02*
X9276000Y-4450000D01*
X9200000Y-4374000D01*
X9124000Y-4450000D01*
X9200000Y-4526000D01*
X9800000Y-4526000D02*
X9876000Y-4450000D01*
X9800000Y-4374000D01*
X9724000Y-4450000D01*
X9800000Y-4526000D01*
X10308000Y-4526000D02*
X10384000Y-4450000D01*
X10308000Y-4374000D01*
X10232000Y-4450000D01*
X10308000Y-4526000D01*
X10942000Y-4526000D02*
X11018000Y-4450000D01*
X10942000Y-4374000D01*
X10866000Y-4450000D01*
X10942000Y-4526000D01*
X11450000Y-4526000D02*
X11526000Y-4450000D01*
X11450000Y-4374000D01*
X11374000Y-4450000D01*
X11450000Y-4526000D01*
X12050000Y-4526000D02*
X12126000Y-4450000D01*
X12050000Y-4374000D01*
X11974000Y-4450000D01*
X12050000Y-4526000D01*
X12558000Y-4526000D02*
X12634000Y-4450000D01*
X12558000Y-4374000D01*
X12482000Y-4450000D01*
X12558000Y-4526000D01*
X13150000Y-4526000D02*
X13226000Y-4450000D01*
X13150000Y-4374000D01*
X13074000Y-4450000D01*
X13150000Y-4526000D01*
X13658000Y-4526000D02*
X13734000Y-4450000D01*
X13658000Y-4374000D01*
X13582000Y-4450000D01*
X13658000Y-4526000D01*
X14242000Y-4526000D02*
X14318000Y-4450000D01*
X14242000Y-4374000D01*
X14166000Y-4450000D01*
X14242000Y-4526000D01*
X14750000Y-4526000D02*
X14826000Y-4450000D01*
X14750000Y-4374000D01*
X14674000Y-4450000D01*
X14750000Y-4526000D01*
X15350000Y-4526000D02*
X15426000Y-4450000D01*
X15350000Y-4374000D01*
X15274000Y-4450000D01*
X15350000Y-4526000D01*
X15858000Y-4526000D02*
X15934000Y-4450000D01*
X15858000Y-4374000D01*
X15782000Y-4450000D01*
X15858000Y-4526000D01*
X16450000Y-4526000D02*
X16526000Y-4450000D01*
X16450000Y-4374000D01*
X16374000Y-4450000D01*
X16450000Y-4526000D01*
X16958000Y-4526000D02*
X17034000Y-4450000D01*
X16958000Y-4374000D01*
X16882000Y-4450000D01*
X16958000Y-4526000D01*
X17600000Y-4526000D02*
X17676000Y-4450000D01*
X17600000Y-4374000D01*
X17524000Y-4450000D01*
X17600000Y-4526000D01*
X18108000Y-4526000D02*
X18184000Y-4450000D01*
X18108000Y-4374000D01*
X18032000Y-4450000D01*
X18108000Y-4526000D01*
X18750000Y-4526000D02*
X18826000Y-4450000D01*
X18750000Y-4374000D01*
X18674000Y-4450000D01*
X18750000Y-4526000D01*
X19258000Y-4526000D02*
X19334000Y-4450000D01*
X19258000Y-4374000D01*
X19182000Y-4450000D01*
X19258000Y-4526000D01*
D12*
X133928Y-11418214D02*
X133928Y-11118214D01*
X205357Y-11118214D01*
X248214Y-11132500D01*
X276786Y-11161072D01*
X291071Y-11189643D01*
X305357Y-11246786D01*
X305357Y-11289643D01*
X291071Y-11346786D01*
X276786Y-11375357D01*
X248214Y-11403929D01*
X205357Y-11418214D01*
X133928Y-11418214D01*
X433928Y-11418214D02*
X433928Y-11218214D01*
X433928Y-11275357D02*
X448214Y-11246786D01*
X462500Y-11232500D01*
X491071Y-11218214D01*
X519643Y-11218214D01*
X619643Y-11418214D02*
X619643Y-11218214D01*
X619643Y-11118214D02*
X605357Y-11132500D01*
X619643Y-11146786D01*
X633928Y-11132500D01*
X619643Y-11118214D01*
X619643Y-11146786D01*
X805357Y-11418214D02*
X776786Y-11403929D01*
X762500Y-11375357D01*
X762500Y-11118214D01*
X962500Y-11418214D02*
X933928Y-11403929D01*
X919643Y-11375357D01*
X919643Y-11118214D01*
X1305357Y-11418214D02*
X1305357Y-11118214D01*
X1405357Y-11332500D01*
X1505357Y-11118214D01*
X1505357Y-11418214D01*
X1776786Y-11418214D02*
X1776786Y-11261071D01*
X1762500Y-11232500D01*
X1733928Y-11218214D01*
X1676786Y-11218214D01*
X1648214Y-11232500D01*
X1776786Y-11403929D02*
X1748214Y-11418214D01*
X1676786Y-11418214D01*
X1648214Y-11403929D01*
X1633928Y-11375357D01*
X1633928Y-11346786D01*
X1648214Y-11318214D01*
X1676786Y-11303929D01*
X1748214Y-11303929D01*
X1776786Y-11289643D01*
X1919643Y-11218214D02*
X1919643Y-11518214D01*
X1919643Y-11232500D02*
X1948214Y-11218214D01*
X2005357Y-11218214D01*
X2033928Y-11232500D01*
X2048214Y-11246786D01*
X2062500Y-11275357D01*
X2062500Y-11361071D01*
X2048214Y-11389643D01*
X2033928Y-11403929D01*
X2005357Y-11418214D01*
X1948214Y-11418214D01*
X1919643Y-11403929D01*
X2191071Y-11389643D02*
X2205357Y-11403929D01*
X2191071Y-11418214D01*
X2176786Y-11403929D01*
X2191071Y-11389643D01*
X2191071Y-11418214D01*
X2191071Y-11232500D02*
X2205357Y-11246786D01*
X2191071Y-11261071D01*
X2176786Y-11246786D01*
X2191071Y-11232500D01*
X2191071Y-11261071D01*
X-232500Y-11872500D02*
X-152500Y-11952500D01*
X-152500Y-11872500D02*
X-232500Y-11952500D01*
X191071Y-11748214D02*
X219643Y-11748214D01*
X248214Y-11762500D01*
X262500Y-11776786D01*
X276786Y-11805357D01*
X291071Y-11862500D01*
X291071Y-11933929D01*
X276786Y-11991071D01*
X262500Y-12019643D01*
X248214Y-12033929D01*
X219643Y-12048214D01*
X191071Y-12048214D01*
X162500Y-12033929D01*
X148214Y-12019643D01*
X133928Y-11991071D01*
X119643Y-11933929D01*
X119643Y-11862500D01*
X133928Y-11805357D01*
X148214Y-11776786D01*
X162500Y-11762500D01*
X191071Y-11748214D01*
X419643Y-12019643D02*
X433928Y-12033929D01*
X419643Y-12048214D01*
X405357Y-12033929D01*
X419643Y-12019643D01*
X419643Y-12048214D01*
X605357Y-11876786D02*
X576786Y-11862500D01*
X562500Y-11848214D01*
X548214Y-11819643D01*
X548214Y-11805357D01*
X562500Y-11776786D01*
X576786Y-11762500D01*
X605357Y-11748214D01*
X662500Y-11748214D01*
X691071Y-11762500D01*
X705357Y-11776786D01*
X719643Y-11805357D01*
X719643Y-11819643D01*
X705357Y-11848214D01*
X691071Y-11862500D01*
X662500Y-11876786D01*
X605357Y-11876786D01*
X576786Y-11891071D01*
X562500Y-11905357D01*
X548214Y-11933929D01*
X548214Y-11991071D01*
X562500Y-12019643D01*
X576786Y-12033929D01*
X605357Y-12048214D01*
X662500Y-12048214D01*
X691071Y-12033929D01*
X705357Y-12019643D01*
X719643Y-11991071D01*
X719643Y-11933929D01*
X705357Y-11905357D01*
X691071Y-11891071D01*
X662500Y-11876786D01*
X905357Y-11748214D02*
X933928Y-11748214D01*
X962500Y-11762500D01*
X976786Y-11776786D01*
X991071Y-11805357D01*
X1005357Y-11862500D01*
X1005357Y-11933929D01*
X991071Y-11991071D01*
X976786Y-12019643D01*
X962500Y-12033929D01*
X933928Y-12048214D01*
X905357Y-12048214D01*
X876786Y-12033929D01*
X862500Y-12019643D01*
X848214Y-11991071D01*
X833928Y-11933929D01*
X833928Y-11862500D01*
X848214Y-11805357D01*
X862500Y-11776786D01*
X876786Y-11762500D01*
X905357Y-11748214D01*
X1191071Y-11748214D02*
X1219643Y-11748214D01*
X1248214Y-11762500D01*
X1262500Y-11776786D01*
X1276786Y-11805357D01*
X1291071Y-11862500D01*
X1291071Y-11933929D01*
X1276786Y-11991071D01*
X1262500Y-12019643D01*
X1248214Y-12033929D01*
X1219643Y-12048214D01*
X1191071Y-12048214D01*
X1162500Y-12033929D01*
X1148214Y-12019643D01*
X1133928Y-11991071D01*
X1119643Y-11933929D01*
X1119643Y-11862500D01*
X1133928Y-11805357D01*
X1148214Y-11776786D01*
X1162500Y-11762500D01*
X1191071Y-11748214D01*
X1419643Y-12048214D02*
X1419643Y-11848214D01*
X1419643Y-11876786D02*
X1433928Y-11862500D01*
X1462500Y-11848214D01*
X1505357Y-11848214D01*
X1533928Y-11862500D01*
X1548214Y-11891071D01*
X1548214Y-12048214D01*
X1548214Y-11891071D02*
X1562500Y-11862500D01*
X1591071Y-11848214D01*
X1633928Y-11848214D01*
X1662500Y-11862500D01*
X1676786Y-11891071D01*
X1676786Y-12048214D01*
X1819643Y-12048214D02*
X1819643Y-11848214D01*
X1819643Y-11876786D02*
X1833928Y-11862500D01*
X1862500Y-11848214D01*
X1905357Y-11848214D01*
X1933928Y-11862500D01*
X1948214Y-11891071D01*
X1948214Y-12048214D01*
X1948214Y-11891071D02*
X1962500Y-11862500D01*
X1991071Y-11848214D01*
X2033928Y-11848214D01*
X2062500Y-11862500D01*
X2076786Y-11891071D01*
X2076786Y-12048214D01*
X2662500Y-11733929D02*
X2405357Y-12119643D01*
X3048214Y-11748214D02*
X3076786Y-11748214D01*
X3105357Y-11762500D01*
X3119643Y-11776786D01*
X3133928Y-11805357D01*
X3148214Y-11862500D01*
X3148214Y-11933929D01*
X3133928Y-11991071D01*
X3119643Y-12019643D01*
X3105357Y-12033929D01*
X3076786Y-12048214D01*
X3048214Y-12048214D01*
X3019643Y-12033929D01*
X3005357Y-12019643D01*
X2991071Y-11991071D01*
X2976786Y-11933929D01*
X2976786Y-11862500D01*
X2991071Y-11805357D01*
X3005357Y-11776786D01*
X3019643Y-11762500D01*
X3048214Y-11748214D01*
X3276786Y-12019643D02*
X3291071Y-12033929D01*
X3276786Y-12048214D01*
X3262500Y-12033929D01*
X3276786Y-12019643D01*
X3276786Y-12048214D01*
X3476786Y-11748214D02*
X3505357Y-11748214D01*
X3533928Y-11762500D01*
X3548214Y-11776786D01*
X3562500Y-11805357D01*
X3576786Y-11862500D01*
X3576786Y-11933929D01*
X3562500Y-11991071D01*
X3548214Y-12019643D01*
X3533928Y-12033929D01*
X3505357Y-12048214D01*
X3476786Y-12048214D01*
X3448214Y-12033929D01*
X3433928Y-12019643D01*
X3419643Y-11991071D01*
X3405357Y-11933929D01*
X3405357Y-11862500D01*
X3419643Y-11805357D01*
X3433928Y-11776786D01*
X3448214Y-11762500D01*
X3476786Y-11748214D01*
X3676786Y-11748214D02*
X3862500Y-11748214D01*
X3762500Y-11862500D01*
X3805357Y-11862500D01*
X3833928Y-11876786D01*
X3848214Y-11891071D01*
X3862500Y-11919643D01*
X3862500Y-11991071D01*
X3848214Y-12019643D01*
X3833928Y-12033929D01*
X3805357Y-12048214D01*
X3719643Y-12048214D01*
X3691071Y-12033929D01*
X3676786Y-12019643D01*
X4148214Y-12048214D02*
X3976786Y-12048214D01*
X4062500Y-12048214D02*
X4062500Y-11748214D01*
X4033928Y-11791071D01*
X4005357Y-11819643D01*
X3976786Y-11833929D01*
X4419643Y-11748214D02*
X4276786Y-11748214D01*
X4262500Y-11891071D01*
X4276786Y-11876786D01*
X4305357Y-11862500D01*
X4376786Y-11862500D01*
X4405357Y-11876786D01*
X4419643Y-11891071D01*
X4433928Y-11919643D01*
X4433928Y-11991071D01*
X4419643Y-12019643D01*
X4405357Y-12033929D01*
X4376786Y-12048214D01*
X4305357Y-12048214D01*
X4276786Y-12033929D01*
X4262500Y-12019643D01*
X4548214Y-11748214D02*
X4548214Y-11805357D01*
X4662500Y-11748214D02*
X4662500Y-11805357D01*
X5105357Y-12162500D02*
X5091071Y-12148214D01*
X5062500Y-12105357D01*
X5048214Y-12076786D01*
X5033928Y-12033929D01*
X5019643Y-11962500D01*
X5019643Y-11905357D01*
X5033928Y-11833929D01*
X5048214Y-11791071D01*
X5062500Y-11762500D01*
X5091071Y-11719643D01*
X5105357Y-11705357D01*
X5348214Y-11848214D02*
X5348214Y-12048214D01*
X5276786Y-11733929D02*
X5205357Y-11948214D01*
X5391071Y-11948214D01*
X5562500Y-11748214D02*
X5591071Y-11748214D01*
X5619643Y-11762500D01*
X5633928Y-11776786D01*
X5648214Y-11805357D01*
X5662500Y-11862500D01*
X5662500Y-11933929D01*
X5648214Y-11991071D01*
X5633928Y-12019643D01*
X5619643Y-12033929D01*
X5591071Y-12048214D01*
X5562500Y-12048214D01*
X5533928Y-12033929D01*
X5519643Y-12019643D01*
X5505357Y-11991071D01*
X5491071Y-11933929D01*
X5491071Y-11862500D01*
X5505357Y-11805357D01*
X5519643Y-11776786D01*
X5533928Y-11762500D01*
X5562500Y-11748214D01*
X6019643Y-12048214D02*
X6019643Y-11748214D01*
X6148214Y-12048214D02*
X6148214Y-11891071D01*
X6133928Y-11862500D01*
X6105357Y-11848214D01*
X6062500Y-11848214D01*
X6033928Y-11862500D01*
X6019643Y-11876786D01*
X6333928Y-12048214D02*
X6305357Y-12033929D01*
X6291071Y-12019643D01*
X6276786Y-11991071D01*
X6276786Y-11905357D01*
X6291071Y-11876786D01*
X6305357Y-11862500D01*
X6333928Y-11848214D01*
X6376786Y-11848214D01*
X6405357Y-11862500D01*
X6419643Y-11876786D01*
X6433928Y-11905357D01*
X6433928Y-11991071D01*
X6419643Y-12019643D01*
X6405357Y-12033929D01*
X6376786Y-12048214D01*
X6333928Y-12048214D01*
X6605357Y-12048214D02*
X6576786Y-12033929D01*
X6562500Y-12005357D01*
X6562500Y-11748214D01*
X6833928Y-12033929D02*
X6805357Y-12048214D01*
X6748214Y-12048214D01*
X6719643Y-12033929D01*
X6705357Y-12005357D01*
X6705357Y-11891071D01*
X6719643Y-11862500D01*
X6748214Y-11848214D01*
X6805357Y-11848214D01*
X6833928Y-11862500D01*
X6848214Y-11891071D01*
X6848214Y-11919643D01*
X6705357Y-11948214D01*
X6962500Y-12033929D02*
X6991071Y-12048214D01*
X7048214Y-12048214D01*
X7076786Y-12033929D01*
X7091071Y-12005357D01*
X7091071Y-11991071D01*
X7076786Y-11962500D01*
X7048214Y-11948214D01*
X7005357Y-11948214D01*
X6976786Y-11933929D01*
X6962500Y-11905357D01*
X6962500Y-11891071D01*
X6976786Y-11862500D01*
X7005357Y-11848214D01*
X7048214Y-11848214D01*
X7076786Y-11862500D01*
X7191071Y-12162500D02*
X7205357Y-12148214D01*
X7233928Y-12105357D01*
X7248214Y-12076786D01*
X7262500Y-12033929D01*
X7276786Y-11962500D01*
X7276786Y-11905357D01*
X7262500Y-11833929D01*
X7248214Y-11791071D01*
X7233928Y-11762500D01*
X7205357Y-11719643D01*
X7191071Y-11705357D01*
X-152500Y-12308500D02*
G75*
G03*
X-152500Y-12308500I-50000J0D01*
G01*
X291071Y-12444214D02*
X119643Y-12444214D01*
X205357Y-12444214D02*
X205357Y-12144214D01*
X176786Y-12187071D01*
X148214Y-12215643D01*
X119643Y-12229929D01*
X419643Y-12415643D02*
X433928Y-12429929D01*
X419643Y-12444214D01*
X405357Y-12429929D01*
X419643Y-12415643D01*
X419643Y-12444214D01*
X619643Y-12144214D02*
X648214Y-12144214D01*
X676786Y-12158500D01*
X691071Y-12172786D01*
X705357Y-12201357D01*
X719643Y-12258500D01*
X719643Y-12329929D01*
X705357Y-12387071D01*
X691071Y-12415643D01*
X676786Y-12429929D01*
X648214Y-12444214D01*
X619643Y-12444214D01*
X591071Y-12429929D01*
X576786Y-12415643D01*
X562500Y-12387071D01*
X548214Y-12329929D01*
X548214Y-12258500D01*
X562500Y-12201357D01*
X576786Y-12172786D01*
X591071Y-12158500D01*
X619643Y-12144214D01*
X905357Y-12144214D02*
X933928Y-12144214D01*
X962500Y-12158500D01*
X976786Y-12172786D01*
X991071Y-12201357D01*
X1005357Y-12258500D01*
X1005357Y-12329929D01*
X991071Y-12387071D01*
X976786Y-12415643D01*
X962500Y-12429929D01*
X933928Y-12444214D01*
X905357Y-12444214D01*
X876786Y-12429929D01*
X862500Y-12415643D01*
X848214Y-12387071D01*
X833928Y-12329929D01*
X833928Y-12258500D01*
X848214Y-12201357D01*
X862500Y-12172786D01*
X876786Y-12158500D01*
X905357Y-12144214D01*
X1191071Y-12144214D02*
X1219643Y-12144214D01*
X1248214Y-12158500D01*
X1262500Y-12172786D01*
X1276786Y-12201357D01*
X1291071Y-12258500D01*
X1291071Y-12329929D01*
X1276786Y-12387071D01*
X1262500Y-12415643D01*
X1248214Y-12429929D01*
X1219643Y-12444214D01*
X1191071Y-12444214D01*
X1162500Y-12429929D01*
X1148214Y-12415643D01*
X1133928Y-12387071D01*
X1119643Y-12329929D01*
X1119643Y-12258500D01*
X1133928Y-12201357D01*
X1148214Y-12172786D01*
X1162500Y-12158500D01*
X1191071Y-12144214D01*
X1419643Y-12444214D02*
X1419643Y-12244214D01*
X1419643Y-12272786D02*
X1433928Y-12258500D01*
X1462500Y-12244214D01*
X1505357Y-12244214D01*
X1533928Y-12258500D01*
X1548214Y-12287071D01*
X1548214Y-12444214D01*
X1548214Y-12287071D02*
X1562500Y-12258500D01*
X1591071Y-12244214D01*
X1633928Y-12244214D01*
X1662500Y-12258500D01*
X1676786Y-12287071D01*
X1676786Y-12444214D01*
X1819643Y-12444214D02*
X1819643Y-12244214D01*
X1819643Y-12272786D02*
X1833928Y-12258500D01*
X1862500Y-12244214D01*
X1905357Y-12244214D01*
X1933928Y-12258500D01*
X1948214Y-12287071D01*
X1948214Y-12444214D01*
X1948214Y-12287071D02*
X1962500Y-12258500D01*
X1991071Y-12244214D01*
X2033928Y-12244214D01*
X2062500Y-12258500D01*
X2076786Y-12287071D01*
X2076786Y-12444214D01*
X2662500Y-12129929D02*
X2405357Y-12515643D01*
X3048214Y-12144214D02*
X3076786Y-12144214D01*
X3105357Y-12158500D01*
X3119643Y-12172786D01*
X3133928Y-12201357D01*
X3148214Y-12258500D01*
X3148214Y-12329929D01*
X3133928Y-12387071D01*
X3119643Y-12415643D01*
X3105357Y-12429929D01*
X3076786Y-12444214D01*
X3048214Y-12444214D01*
X3019643Y-12429929D01*
X3005357Y-12415643D01*
X2991071Y-12387071D01*
X2976786Y-12329929D01*
X2976786Y-12258500D01*
X2991071Y-12201357D01*
X3005357Y-12172786D01*
X3019643Y-12158500D01*
X3048214Y-12144214D01*
X3276786Y-12415643D02*
X3291071Y-12429929D01*
X3276786Y-12444214D01*
X3262500Y-12429929D01*
X3276786Y-12415643D01*
X3276786Y-12444214D01*
X3476786Y-12144214D02*
X3505357Y-12144214D01*
X3533928Y-12158500D01*
X3548214Y-12172786D01*
X3562500Y-12201357D01*
X3576786Y-12258500D01*
X3576786Y-12329929D01*
X3562500Y-12387071D01*
X3548214Y-12415643D01*
X3533928Y-12429929D01*
X3505357Y-12444214D01*
X3476786Y-12444214D01*
X3448214Y-12429929D01*
X3433928Y-12415643D01*
X3419643Y-12387071D01*
X3405357Y-12329929D01*
X3405357Y-12258500D01*
X3419643Y-12201357D01*
X3433928Y-12172786D01*
X3448214Y-12158500D01*
X3476786Y-12144214D01*
X3676786Y-12144214D02*
X3862500Y-12144214D01*
X3762500Y-12258500D01*
X3805357Y-12258500D01*
X3833928Y-12272786D01*
X3848214Y-12287071D01*
X3862500Y-12315643D01*
X3862500Y-12387071D01*
X3848214Y-12415643D01*
X3833928Y-12429929D01*
X3805357Y-12444214D01*
X3719643Y-12444214D01*
X3691071Y-12429929D01*
X3676786Y-12415643D01*
X4005357Y-12444214D02*
X4062500Y-12444214D01*
X4091071Y-12429929D01*
X4105357Y-12415643D01*
X4133928Y-12372786D01*
X4148214Y-12315643D01*
X4148214Y-12201357D01*
X4133928Y-12172786D01*
X4119643Y-12158500D01*
X4091071Y-12144214D01*
X4033928Y-12144214D01*
X4005357Y-12158500D01*
X3991071Y-12172786D01*
X3976786Y-12201357D01*
X3976786Y-12272786D01*
X3991071Y-12301357D01*
X4005357Y-12315643D01*
X4033928Y-12329929D01*
X4091071Y-12329929D01*
X4119643Y-12315643D01*
X4133928Y-12301357D01*
X4148214Y-12272786D01*
X4405357Y-12244214D02*
X4405357Y-12444214D01*
X4333928Y-12129929D02*
X4262500Y-12344214D01*
X4448214Y-12344214D01*
X4548214Y-12144214D02*
X4548214Y-12201357D01*
X4662500Y-12144214D02*
X4662500Y-12201357D01*
X5105357Y-12558500D02*
X5091071Y-12544214D01*
X5062500Y-12501357D01*
X5048214Y-12472786D01*
X5033928Y-12429929D01*
X5019643Y-12358500D01*
X5019643Y-12301357D01*
X5033928Y-12229929D01*
X5048214Y-12187071D01*
X5062500Y-12158500D01*
X5091071Y-12115643D01*
X5105357Y-12101357D01*
X5233928Y-12444214D02*
X5291071Y-12444214D01*
X5319643Y-12429929D01*
X5333928Y-12415643D01*
X5362500Y-12372786D01*
X5376786Y-12315643D01*
X5376786Y-12201357D01*
X5362500Y-12172786D01*
X5348214Y-12158500D01*
X5319643Y-12144214D01*
X5262500Y-12144214D01*
X5233928Y-12158500D01*
X5219643Y-12172786D01*
X5205357Y-12201357D01*
X5205357Y-12272786D01*
X5219643Y-12301357D01*
X5233928Y-12315643D01*
X5262500Y-12329929D01*
X5319643Y-12329929D01*
X5348214Y-12315643D01*
X5362500Y-12301357D01*
X5376786Y-12272786D01*
X5562500Y-12144214D02*
X5591071Y-12144214D01*
X5619643Y-12158500D01*
X5633928Y-12172786D01*
X5648214Y-12201357D01*
X5662500Y-12258500D01*
X5662500Y-12329929D01*
X5648214Y-12387071D01*
X5633928Y-12415643D01*
X5619643Y-12429929D01*
X5591071Y-12444214D01*
X5562500Y-12444214D01*
X5533928Y-12429929D01*
X5519643Y-12415643D01*
X5505357Y-12387071D01*
X5491071Y-12329929D01*
X5491071Y-12258500D01*
X5505357Y-12201357D01*
X5519643Y-12172786D01*
X5533928Y-12158500D01*
X5562500Y-12144214D01*
X6019643Y-12444214D02*
X6019643Y-12144214D01*
X6148214Y-12444214D02*
X6148214Y-12287071D01*
X6133928Y-12258500D01*
X6105357Y-12244214D01*
X6062500Y-12244214D01*
X6033928Y-12258500D01*
X6019643Y-12272786D01*
X6333928Y-12444214D02*
X6305357Y-12429929D01*
X6291071Y-12415643D01*
X6276786Y-12387071D01*
X6276786Y-12301357D01*
X6291071Y-12272786D01*
X6305357Y-12258500D01*
X6333928Y-12244214D01*
X6376786Y-12244214D01*
X6405357Y-12258500D01*
X6419643Y-12272786D01*
X6433928Y-12301357D01*
X6433928Y-12387071D01*
X6419643Y-12415643D01*
X6405357Y-12429929D01*
X6376786Y-12444214D01*
X6333928Y-12444214D01*
X6605357Y-12444214D02*
X6576786Y-12429929D01*
X6562500Y-12401357D01*
X6562500Y-12144214D01*
X6833928Y-12429929D02*
X6805357Y-12444214D01*
X6748214Y-12444214D01*
X6719643Y-12429929D01*
X6705357Y-12401357D01*
X6705357Y-12287071D01*
X6719643Y-12258500D01*
X6748214Y-12244214D01*
X6805357Y-12244214D01*
X6833928Y-12258500D01*
X6848214Y-12287071D01*
X6848214Y-12315643D01*
X6705357Y-12344214D01*
X6962500Y-12429929D02*
X6991071Y-12444214D01*
X7048214Y-12444214D01*
X7076786Y-12429929D01*
X7091071Y-12401357D01*
X7091071Y-12387071D01*
X7076786Y-12358500D01*
X7048214Y-12344214D01*
X7005357Y-12344214D01*
X6976786Y-12329929D01*
X6962500Y-12301357D01*
X6962500Y-12287071D01*
X6976786Y-12258500D01*
X7005357Y-12244214D01*
X7048214Y-12244214D01*
X7076786Y-12258500D01*
X7191071Y-12558500D02*
X7205357Y-12544214D01*
X7233928Y-12501357D01*
X7248214Y-12472786D01*
X7262500Y-12429929D01*
X7276786Y-12358500D01*
X7276786Y-12301357D01*
X7262500Y-12229929D01*
X7248214Y-12187071D01*
X7233928Y-12158500D01*
X7205357Y-12115643D01*
X7191071Y-12101357D01*
X-212500Y-12644500D02*
X-212500Y-12764500D01*
X-272500Y-12704500D02*
X-152500Y-12704500D01*
X291071Y-12840214D02*
X119643Y-12840214D01*
X205357Y-12840214D02*
X205357Y-12540214D01*
X176786Y-12583071D01*
X148214Y-12611643D01*
X119643Y-12625929D01*
X419643Y-12811643D02*
X433928Y-12825929D01*
X419643Y-12840214D01*
X405357Y-12825929D01*
X419643Y-12811643D01*
X419643Y-12840214D01*
X548214Y-12568786D02*
X562500Y-12554500D01*
X591071Y-12540214D01*
X662500Y-12540214D01*
X691071Y-12554500D01*
X705357Y-12568786D01*
X719643Y-12597357D01*
X719643Y-12625929D01*
X705357Y-12668786D01*
X533928Y-12840214D01*
X719643Y-12840214D01*
X905357Y-12540214D02*
X933928Y-12540214D01*
X962500Y-12554500D01*
X976786Y-12568786D01*
X991071Y-12597357D01*
X1005357Y-12654500D01*
X1005357Y-12725929D01*
X991071Y-12783071D01*
X976786Y-12811643D01*
X962500Y-12825929D01*
X933928Y-12840214D01*
X905357Y-12840214D01*
X876786Y-12825929D01*
X862500Y-12811643D01*
X848214Y-12783071D01*
X833928Y-12725929D01*
X833928Y-12654500D01*
X848214Y-12597357D01*
X862500Y-12568786D01*
X876786Y-12554500D01*
X905357Y-12540214D01*
X1191071Y-12540214D02*
X1219643Y-12540214D01*
X1248214Y-12554500D01*
X1262500Y-12568786D01*
X1276786Y-12597357D01*
X1291071Y-12654500D01*
X1291071Y-12725929D01*
X1276786Y-12783071D01*
X1262500Y-12811643D01*
X1248214Y-12825929D01*
X1219643Y-12840214D01*
X1191071Y-12840214D01*
X1162500Y-12825929D01*
X1148214Y-12811643D01*
X1133928Y-12783071D01*
X1119643Y-12725929D01*
X1119643Y-12654500D01*
X1133928Y-12597357D01*
X1148214Y-12568786D01*
X1162500Y-12554500D01*
X1191071Y-12540214D01*
X1419643Y-12840214D02*
X1419643Y-12640214D01*
X1419643Y-12668786D02*
X1433928Y-12654500D01*
X1462500Y-12640214D01*
X1505357Y-12640214D01*
X1533928Y-12654500D01*
X1548214Y-12683071D01*
X1548214Y-12840214D01*
X1548214Y-12683071D02*
X1562500Y-12654500D01*
X1591071Y-12640214D01*
X1633928Y-12640214D01*
X1662500Y-12654500D01*
X1676786Y-12683071D01*
X1676786Y-12840214D01*
X1819643Y-12840214D02*
X1819643Y-12640214D01*
X1819643Y-12668786D02*
X1833928Y-12654500D01*
X1862500Y-12640214D01*
X1905357Y-12640214D01*
X1933928Y-12654500D01*
X1948214Y-12683071D01*
X1948214Y-12840214D01*
X1948214Y-12683071D02*
X1962500Y-12654500D01*
X1991071Y-12640214D01*
X2033928Y-12640214D01*
X2062500Y-12654500D01*
X2076786Y-12683071D01*
X2076786Y-12840214D01*
X2662500Y-12525929D02*
X2405357Y-12911643D01*
X3048214Y-12540214D02*
X3076786Y-12540214D01*
X3105357Y-12554500D01*
X3119643Y-12568786D01*
X3133928Y-12597357D01*
X3148214Y-12654500D01*
X3148214Y-12725929D01*
X3133928Y-12783071D01*
X3119643Y-12811643D01*
X3105357Y-12825929D01*
X3076786Y-12840214D01*
X3048214Y-12840214D01*
X3019643Y-12825929D01*
X3005357Y-12811643D01*
X2991071Y-12783071D01*
X2976786Y-12725929D01*
X2976786Y-12654500D01*
X2991071Y-12597357D01*
X3005357Y-12568786D01*
X3019643Y-12554500D01*
X3048214Y-12540214D01*
X3276786Y-12811643D02*
X3291071Y-12825929D01*
X3276786Y-12840214D01*
X3262500Y-12825929D01*
X3276786Y-12811643D01*
X3276786Y-12840214D01*
X3476786Y-12540214D02*
X3505357Y-12540214D01*
X3533928Y-12554500D01*
X3548214Y-12568786D01*
X3562500Y-12597357D01*
X3576786Y-12654500D01*
X3576786Y-12725929D01*
X3562500Y-12783071D01*
X3548214Y-12811643D01*
X3533928Y-12825929D01*
X3505357Y-12840214D01*
X3476786Y-12840214D01*
X3448214Y-12825929D01*
X3433928Y-12811643D01*
X3419643Y-12783071D01*
X3405357Y-12725929D01*
X3405357Y-12654500D01*
X3419643Y-12597357D01*
X3433928Y-12568786D01*
X3448214Y-12554500D01*
X3476786Y-12540214D01*
X3833928Y-12640214D02*
X3833928Y-12840214D01*
X3762500Y-12525929D02*
X3691071Y-12740214D01*
X3876786Y-12740214D01*
X3962500Y-12540214D02*
X4162500Y-12540214D01*
X4033928Y-12840214D01*
X4262500Y-12568786D02*
X4276786Y-12554500D01*
X4305357Y-12540214D01*
X4376786Y-12540214D01*
X4405357Y-12554500D01*
X4419643Y-12568786D01*
X4433928Y-12597357D01*
X4433928Y-12625929D01*
X4419643Y-12668786D01*
X4248214Y-12840214D01*
X4433928Y-12840214D01*
X4548214Y-12540214D02*
X4548214Y-12597357D01*
X4662500Y-12540214D02*
X4662500Y-12597357D01*
X5105357Y-12954500D02*
X5091071Y-12940214D01*
X5062500Y-12897357D01*
X5048214Y-12868786D01*
X5033928Y-12825929D01*
X5019643Y-12754500D01*
X5019643Y-12697357D01*
X5033928Y-12625929D01*
X5048214Y-12583071D01*
X5062500Y-12554500D01*
X5091071Y-12511643D01*
X5105357Y-12497357D01*
X5376786Y-12840214D02*
X5205357Y-12840214D01*
X5291071Y-12840214D02*
X5291071Y-12540214D01*
X5262500Y-12583071D01*
X5233928Y-12611643D01*
X5205357Y-12625929D01*
X5733928Y-12840214D02*
X5733928Y-12540214D01*
X5862500Y-12840214D02*
X5862500Y-12683071D01*
X5848214Y-12654500D01*
X5819643Y-12640214D01*
X5776786Y-12640214D01*
X5748214Y-12654500D01*
X5733928Y-12668786D01*
X6048214Y-12840214D02*
X6019643Y-12825929D01*
X6005357Y-12811643D01*
X5991071Y-12783071D01*
X5991071Y-12697357D01*
X6005357Y-12668786D01*
X6019643Y-12654500D01*
X6048214Y-12640214D01*
X6091071Y-12640214D01*
X6119643Y-12654500D01*
X6133928Y-12668786D01*
X6148214Y-12697357D01*
X6148214Y-12783071D01*
X6133928Y-12811643D01*
X6119643Y-12825929D01*
X6091071Y-12840214D01*
X6048214Y-12840214D01*
X6319643Y-12840214D02*
X6291071Y-12825929D01*
X6276786Y-12797357D01*
X6276786Y-12540214D01*
X6548214Y-12825929D02*
X6519643Y-12840214D01*
X6462500Y-12840214D01*
X6433928Y-12825929D01*
X6419643Y-12797357D01*
X6419643Y-12683071D01*
X6433928Y-12654500D01*
X6462500Y-12640214D01*
X6519643Y-12640214D01*
X6548214Y-12654500D01*
X6562500Y-12683071D01*
X6562500Y-12711643D01*
X6419643Y-12740214D01*
X6662500Y-12954500D02*
X6676786Y-12940214D01*
X6705357Y-12897357D01*
X6719643Y-12868786D01*
X6733928Y-12825929D01*
X6748214Y-12754500D01*
X6748214Y-12697357D01*
X6733928Y-12625929D01*
X6719643Y-12583071D01*
X6705357Y-12554500D01*
X6676786Y-12511643D01*
X6662500Y-12497357D01*
X-171538Y-13146462D02*
X-171538Y-13054538D01*
X-263463Y-13054538D01*
X-263463Y-13146462D01*
X-171538Y-13146462D01*
X291071Y-13236214D02*
X119643Y-13236214D01*
X205357Y-13236214D02*
X205357Y-12936214D01*
X176786Y-12979071D01*
X148214Y-13007643D01*
X119643Y-13021929D01*
X419643Y-13207643D02*
X433928Y-13221929D01*
X419643Y-13236214D01*
X405357Y-13221929D01*
X419643Y-13207643D01*
X419643Y-13236214D01*
X533928Y-12936214D02*
X719643Y-12936214D01*
X619643Y-13050500D01*
X662500Y-13050500D01*
X691071Y-13064786D01*
X705357Y-13079071D01*
X719643Y-13107643D01*
X719643Y-13179071D01*
X705357Y-13207643D01*
X691071Y-13221929D01*
X662500Y-13236214D01*
X576786Y-13236214D01*
X548214Y-13221929D01*
X533928Y-13207643D01*
X905357Y-12936214D02*
X933928Y-12936214D01*
X962500Y-12950500D01*
X976786Y-12964786D01*
X991071Y-12993357D01*
X1005357Y-13050500D01*
X1005357Y-13121929D01*
X991071Y-13179071D01*
X976786Y-13207643D01*
X962500Y-13221929D01*
X933928Y-13236214D01*
X905357Y-13236214D01*
X876786Y-13221929D01*
X862500Y-13207643D01*
X848214Y-13179071D01*
X833928Y-13121929D01*
X833928Y-13050500D01*
X848214Y-12993357D01*
X862500Y-12964786D01*
X876786Y-12950500D01*
X905357Y-12936214D01*
X1191071Y-12936214D02*
X1219643Y-12936214D01*
X1248214Y-12950500D01*
X1262500Y-12964786D01*
X1276786Y-12993357D01*
X1291071Y-13050500D01*
X1291071Y-13121929D01*
X1276786Y-13179071D01*
X1262500Y-13207643D01*
X1248214Y-13221929D01*
X1219643Y-13236214D01*
X1191071Y-13236214D01*
X1162500Y-13221929D01*
X1148214Y-13207643D01*
X1133928Y-13179071D01*
X1119643Y-13121929D01*
X1119643Y-13050500D01*
X1133928Y-12993357D01*
X1148214Y-12964786D01*
X1162500Y-12950500D01*
X1191071Y-12936214D01*
X1419643Y-13236214D02*
X1419643Y-13036214D01*
X1419643Y-13064786D02*
X1433928Y-13050500D01*
X1462500Y-13036214D01*
X1505357Y-13036214D01*
X1533928Y-13050500D01*
X1548214Y-13079071D01*
X1548214Y-13236214D01*
X1548214Y-13079071D02*
X1562500Y-13050500D01*
X1591071Y-13036214D01*
X1633928Y-13036214D01*
X1662500Y-13050500D01*
X1676786Y-13079071D01*
X1676786Y-13236214D01*
X1819643Y-13236214D02*
X1819643Y-13036214D01*
X1819643Y-13064786D02*
X1833928Y-13050500D01*
X1862500Y-13036214D01*
X1905357Y-13036214D01*
X1933928Y-13050500D01*
X1948214Y-13079071D01*
X1948214Y-13236214D01*
X1948214Y-13079071D02*
X1962500Y-13050500D01*
X1991071Y-13036214D01*
X2033928Y-13036214D01*
X2062500Y-13050500D01*
X2076786Y-13079071D01*
X2076786Y-13236214D01*
X2662500Y-12921929D02*
X2405357Y-13307643D01*
X3048214Y-12936214D02*
X3076786Y-12936214D01*
X3105357Y-12950500D01*
X3119643Y-12964786D01*
X3133928Y-12993357D01*
X3148214Y-13050500D01*
X3148214Y-13121929D01*
X3133928Y-13179071D01*
X3119643Y-13207643D01*
X3105357Y-13221929D01*
X3076786Y-13236214D01*
X3048214Y-13236214D01*
X3019643Y-13221929D01*
X3005357Y-13207643D01*
X2991071Y-13179071D01*
X2976786Y-13121929D01*
X2976786Y-13050500D01*
X2991071Y-12993357D01*
X3005357Y-12964786D01*
X3019643Y-12950500D01*
X3048214Y-12936214D01*
X3276786Y-13207643D02*
X3291071Y-13221929D01*
X3276786Y-13236214D01*
X3262500Y-13221929D01*
X3276786Y-13207643D01*
X3276786Y-13236214D01*
X3476786Y-12936214D02*
X3505357Y-12936214D01*
X3533928Y-12950500D01*
X3548214Y-12964786D01*
X3562500Y-12993357D01*
X3576786Y-13050500D01*
X3576786Y-13121929D01*
X3562500Y-13179071D01*
X3548214Y-13207643D01*
X3533928Y-13221929D01*
X3505357Y-13236214D01*
X3476786Y-13236214D01*
X3448214Y-13221929D01*
X3433928Y-13207643D01*
X3419643Y-13179071D01*
X3405357Y-13121929D01*
X3405357Y-13050500D01*
X3419643Y-12993357D01*
X3433928Y-12964786D01*
X3448214Y-12950500D01*
X3476786Y-12936214D01*
X3848214Y-12936214D02*
X3705357Y-12936214D01*
X3691071Y-13079071D01*
X3705357Y-13064786D01*
X3733928Y-13050500D01*
X3805357Y-13050500D01*
X3833928Y-13064786D01*
X3848214Y-13079071D01*
X3862500Y-13107643D01*
X3862500Y-13179071D01*
X3848214Y-13207643D01*
X3833928Y-13221929D01*
X3805357Y-13236214D01*
X3733928Y-13236214D01*
X3705357Y-13221929D01*
X3691071Y-13207643D01*
X4148214Y-13236214D02*
X3976786Y-13236214D01*
X4062500Y-13236214D02*
X4062500Y-12936214D01*
X4033928Y-12979071D01*
X4005357Y-13007643D01*
X3976786Y-13021929D01*
X4262500Y-12964786D02*
X4276786Y-12950500D01*
X4305357Y-12936214D01*
X4376786Y-12936214D01*
X4405357Y-12950500D01*
X4419643Y-12964786D01*
X4433928Y-12993357D01*
X4433928Y-13021929D01*
X4419643Y-13064786D01*
X4248214Y-13236214D01*
X4433928Y-13236214D01*
X4548214Y-12936214D02*
X4548214Y-12993357D01*
X4662500Y-12936214D02*
X4662500Y-12993357D01*
X5105357Y-13350500D02*
X5091071Y-13336214D01*
X5062500Y-13293357D01*
X5048214Y-13264786D01*
X5033928Y-13221929D01*
X5019643Y-13150500D01*
X5019643Y-13093357D01*
X5033928Y-13021929D01*
X5048214Y-12979071D01*
X5062500Y-12950500D01*
X5091071Y-12907643D01*
X5105357Y-12893357D01*
X5233928Y-13236214D02*
X5291071Y-13236214D01*
X5319643Y-13221929D01*
X5333928Y-13207643D01*
X5362500Y-13164786D01*
X5376786Y-13107643D01*
X5376786Y-12993357D01*
X5362500Y-12964786D01*
X5348214Y-12950500D01*
X5319643Y-12936214D01*
X5262500Y-12936214D01*
X5233928Y-12950500D01*
X5219643Y-12964786D01*
X5205357Y-12993357D01*
X5205357Y-13064786D01*
X5219643Y-13093357D01*
X5233928Y-13107643D01*
X5262500Y-13121929D01*
X5319643Y-13121929D01*
X5348214Y-13107643D01*
X5362500Y-13093357D01*
X5376786Y-13064786D01*
X5733928Y-13236214D02*
X5733928Y-12936214D01*
X5862500Y-13236214D02*
X5862500Y-13079071D01*
X5848214Y-13050500D01*
X5819643Y-13036214D01*
X5776786Y-13036214D01*
X5748214Y-13050500D01*
X5733928Y-13064786D01*
X6048214Y-13236214D02*
X6019643Y-13221929D01*
X6005357Y-13207643D01*
X5991071Y-13179071D01*
X5991071Y-13093357D01*
X6005357Y-13064786D01*
X6019643Y-13050500D01*
X6048214Y-13036214D01*
X6091071Y-13036214D01*
X6119643Y-13050500D01*
X6133928Y-13064786D01*
X6148214Y-13093357D01*
X6148214Y-13179071D01*
X6133928Y-13207643D01*
X6119643Y-13221929D01*
X6091071Y-13236214D01*
X6048214Y-13236214D01*
X6319643Y-13236214D02*
X6291071Y-13221929D01*
X6276786Y-13193357D01*
X6276786Y-12936214D01*
X6548214Y-13221929D02*
X6519643Y-13236214D01*
X6462500Y-13236214D01*
X6433928Y-13221929D01*
X6419643Y-13193357D01*
X6419643Y-13079071D01*
X6433928Y-13050500D01*
X6462500Y-13036214D01*
X6519643Y-13036214D01*
X6548214Y-13050500D01*
X6562500Y-13079071D01*
X6562500Y-13107643D01*
X6419643Y-13136214D01*
X6676786Y-13221929D02*
X6705357Y-13236214D01*
X6762500Y-13236214D01*
X6791071Y-13221929D01*
X6805357Y-13193357D01*
X6805357Y-13179071D01*
X6791071Y-13150500D01*
X6762500Y-13136214D01*
X6719643Y-13136214D01*
X6691071Y-13121929D01*
X6676786Y-13093357D01*
X6676786Y-13079071D01*
X6691071Y-13050500D01*
X6719643Y-13036214D01*
X6762500Y-13036214D01*
X6791071Y-13050500D01*
X6905357Y-13350500D02*
X6919643Y-13336214D01*
X6948214Y-13293357D01*
X6962500Y-13264786D01*
X6976786Y-13221929D01*
X6991071Y-13150500D01*
X6991071Y-13093357D01*
X6976786Y-13021929D01*
X6962500Y-12979071D01*
X6948214Y-12950500D01*
X6919643Y-12907643D01*
X6905357Y-12893357D01*
X-228500Y-13572500D02*
X-152500Y-13496500D01*
X-228500Y-13420500D01*
X-304500Y-13496500D01*
X-228500Y-13572500D01*
X291071Y-13632214D02*
X119643Y-13632214D01*
X205357Y-13632214D02*
X205357Y-13332214D01*
X176786Y-13375071D01*
X148214Y-13403643D01*
X119643Y-13417929D01*
X419643Y-13603643D02*
X433928Y-13617929D01*
X419643Y-13632214D01*
X405357Y-13617929D01*
X419643Y-13603643D01*
X419643Y-13632214D01*
X705357Y-13332214D02*
X562500Y-13332214D01*
X548214Y-13475071D01*
X562500Y-13460786D01*
X591071Y-13446500D01*
X662500Y-13446500D01*
X691071Y-13460786D01*
X705357Y-13475071D01*
X719643Y-13503643D01*
X719643Y-13575071D01*
X705357Y-13603643D01*
X691071Y-13617929D01*
X662500Y-13632214D01*
X591071Y-13632214D01*
X562500Y-13617929D01*
X548214Y-13603643D01*
X833928Y-13360786D02*
X848214Y-13346500D01*
X876786Y-13332214D01*
X948214Y-13332214D01*
X976786Y-13346500D01*
X991071Y-13360786D01*
X1005357Y-13389357D01*
X1005357Y-13417929D01*
X991071Y-13460786D01*
X819643Y-13632214D01*
X1005357Y-13632214D01*
X1191071Y-13332214D02*
X1219643Y-13332214D01*
X1248214Y-13346500D01*
X1262500Y-13360786D01*
X1276786Y-13389357D01*
X1291071Y-13446500D01*
X1291071Y-13517929D01*
X1276786Y-13575071D01*
X1262500Y-13603643D01*
X1248214Y-13617929D01*
X1219643Y-13632214D01*
X1191071Y-13632214D01*
X1162500Y-13617929D01*
X1148214Y-13603643D01*
X1133928Y-13575071D01*
X1119643Y-13517929D01*
X1119643Y-13446500D01*
X1133928Y-13389357D01*
X1148214Y-13360786D01*
X1162500Y-13346500D01*
X1191071Y-13332214D01*
X1419643Y-13632214D02*
X1419643Y-13432214D01*
X1419643Y-13460786D02*
X1433928Y-13446500D01*
X1462500Y-13432214D01*
X1505357Y-13432214D01*
X1533928Y-13446500D01*
X1548214Y-13475071D01*
X1548214Y-13632214D01*
X1548214Y-13475071D02*
X1562500Y-13446500D01*
X1591071Y-13432214D01*
X1633928Y-13432214D01*
X1662500Y-13446500D01*
X1676786Y-13475071D01*
X1676786Y-13632214D01*
X1819643Y-13632214D02*
X1819643Y-13432214D01*
X1819643Y-13460786D02*
X1833928Y-13446500D01*
X1862500Y-13432214D01*
X1905357Y-13432214D01*
X1933928Y-13446500D01*
X1948214Y-13475071D01*
X1948214Y-13632214D01*
X1948214Y-13475071D02*
X1962500Y-13446500D01*
X1991071Y-13432214D01*
X2033928Y-13432214D01*
X2062500Y-13446500D01*
X2076786Y-13475071D01*
X2076786Y-13632214D01*
X2662500Y-13317929D02*
X2405357Y-13703643D01*
X3048214Y-13332214D02*
X3076786Y-13332214D01*
X3105357Y-13346500D01*
X3119643Y-13360786D01*
X3133928Y-13389357D01*
X3148214Y-13446500D01*
X3148214Y-13517929D01*
X3133928Y-13575071D01*
X3119643Y-13603643D01*
X3105357Y-13617929D01*
X3076786Y-13632214D01*
X3048214Y-13632214D01*
X3019643Y-13617929D01*
X3005357Y-13603643D01*
X2991071Y-13575071D01*
X2976786Y-13517929D01*
X2976786Y-13446500D01*
X2991071Y-13389357D01*
X3005357Y-13360786D01*
X3019643Y-13346500D01*
X3048214Y-13332214D01*
X3276786Y-13603643D02*
X3291071Y-13617929D01*
X3276786Y-13632214D01*
X3262500Y-13617929D01*
X3276786Y-13603643D01*
X3276786Y-13632214D01*
X3476786Y-13332214D02*
X3505357Y-13332214D01*
X3533928Y-13346500D01*
X3548214Y-13360786D01*
X3562500Y-13389357D01*
X3576786Y-13446500D01*
X3576786Y-13517929D01*
X3562500Y-13575071D01*
X3548214Y-13603643D01*
X3533928Y-13617929D01*
X3505357Y-13632214D01*
X3476786Y-13632214D01*
X3448214Y-13617929D01*
X3433928Y-13603643D01*
X3419643Y-13575071D01*
X3405357Y-13517929D01*
X3405357Y-13446500D01*
X3419643Y-13389357D01*
X3433928Y-13360786D01*
X3448214Y-13346500D01*
X3476786Y-13332214D01*
X3848214Y-13332214D02*
X3705357Y-13332214D01*
X3691071Y-13475071D01*
X3705357Y-13460786D01*
X3733928Y-13446500D01*
X3805357Y-13446500D01*
X3833928Y-13460786D01*
X3848214Y-13475071D01*
X3862500Y-13503643D01*
X3862500Y-13575071D01*
X3848214Y-13603643D01*
X3833928Y-13617929D01*
X3805357Y-13632214D01*
X3733928Y-13632214D01*
X3705357Y-13617929D01*
X3691071Y-13603643D01*
X4005357Y-13632214D02*
X4062500Y-13632214D01*
X4091071Y-13617929D01*
X4105357Y-13603643D01*
X4133928Y-13560786D01*
X4148214Y-13503643D01*
X4148214Y-13389357D01*
X4133928Y-13360786D01*
X4119643Y-13346500D01*
X4091071Y-13332214D01*
X4033928Y-13332214D01*
X4005357Y-13346500D01*
X3991071Y-13360786D01*
X3976786Y-13389357D01*
X3976786Y-13460786D01*
X3991071Y-13489357D01*
X4005357Y-13503643D01*
X4033928Y-13517929D01*
X4091071Y-13517929D01*
X4119643Y-13503643D01*
X4133928Y-13489357D01*
X4148214Y-13460786D01*
X4319643Y-13460786D02*
X4291071Y-13446500D01*
X4276786Y-13432214D01*
X4262500Y-13403643D01*
X4262500Y-13389357D01*
X4276786Y-13360786D01*
X4291071Y-13346500D01*
X4319643Y-13332214D01*
X4376786Y-13332214D01*
X4405357Y-13346500D01*
X4419643Y-13360786D01*
X4433928Y-13389357D01*
X4433928Y-13403643D01*
X4419643Y-13432214D01*
X4405357Y-13446500D01*
X4376786Y-13460786D01*
X4319643Y-13460786D01*
X4291071Y-13475071D01*
X4276786Y-13489357D01*
X4262500Y-13517929D01*
X4262500Y-13575071D01*
X4276786Y-13603643D01*
X4291071Y-13617929D01*
X4319643Y-13632214D01*
X4376786Y-13632214D01*
X4405357Y-13617929D01*
X4419643Y-13603643D01*
X4433928Y-13575071D01*
X4433928Y-13517929D01*
X4419643Y-13489357D01*
X4405357Y-13475071D01*
X4376786Y-13460786D01*
X4548214Y-13332214D02*
X4548214Y-13389357D01*
X4662500Y-13332214D02*
X4662500Y-13389357D01*
X5105357Y-13746500D02*
X5091071Y-13732214D01*
X5062500Y-13689357D01*
X5048214Y-13660786D01*
X5033928Y-13617929D01*
X5019643Y-13546500D01*
X5019643Y-13489357D01*
X5033928Y-13417929D01*
X5048214Y-13375071D01*
X5062500Y-13346500D01*
X5091071Y-13303643D01*
X5105357Y-13289357D01*
X5191071Y-13332214D02*
X5376786Y-13332214D01*
X5276786Y-13446500D01*
X5319643Y-13446500D01*
X5348214Y-13460786D01*
X5362500Y-13475071D01*
X5376786Y-13503643D01*
X5376786Y-13575071D01*
X5362500Y-13603643D01*
X5348214Y-13617929D01*
X5319643Y-13632214D01*
X5233928Y-13632214D01*
X5205357Y-13617929D01*
X5191071Y-13603643D01*
X5633928Y-13332214D02*
X5576786Y-13332214D01*
X5548214Y-13346500D01*
X5533928Y-13360786D01*
X5505357Y-13403643D01*
X5491071Y-13460786D01*
X5491071Y-13575071D01*
X5505357Y-13603643D01*
X5519643Y-13617929D01*
X5548214Y-13632214D01*
X5605357Y-13632214D01*
X5633928Y-13617929D01*
X5648214Y-13603643D01*
X5662500Y-13575071D01*
X5662500Y-13503643D01*
X5648214Y-13475071D01*
X5633928Y-13460786D01*
X5605357Y-13446500D01*
X5548214Y-13446500D01*
X5519643Y-13460786D01*
X5505357Y-13475071D01*
X5491071Y-13503643D01*
X6019643Y-13632214D02*
X6019643Y-13332214D01*
X6148214Y-13632214D02*
X6148214Y-13475071D01*
X6133928Y-13446500D01*
X6105357Y-13432214D01*
X6062500Y-13432214D01*
X6033928Y-13446500D01*
X6019643Y-13460786D01*
X6333928Y-13632214D02*
X6305357Y-13617929D01*
X6291071Y-13603643D01*
X6276786Y-13575071D01*
X6276786Y-13489357D01*
X6291071Y-13460786D01*
X6305357Y-13446500D01*
X6333928Y-13432214D01*
X6376786Y-13432214D01*
X6405357Y-13446500D01*
X6419643Y-13460786D01*
X6433928Y-13489357D01*
X6433928Y-13575071D01*
X6419643Y-13603643D01*
X6405357Y-13617929D01*
X6376786Y-13632214D01*
X6333928Y-13632214D01*
X6605357Y-13632214D02*
X6576786Y-13617929D01*
X6562500Y-13589357D01*
X6562500Y-13332214D01*
X6833928Y-13617929D02*
X6805357Y-13632214D01*
X6748214Y-13632214D01*
X6719643Y-13617929D01*
X6705357Y-13589357D01*
X6705357Y-13475071D01*
X6719643Y-13446500D01*
X6748214Y-13432214D01*
X6805357Y-13432214D01*
X6833928Y-13446500D01*
X6848214Y-13475071D01*
X6848214Y-13503643D01*
X6705357Y-13532214D01*
X6962500Y-13617929D02*
X6991071Y-13632214D01*
X7048214Y-13632214D01*
X7076786Y-13617929D01*
X7091071Y-13589357D01*
X7091071Y-13575071D01*
X7076786Y-13546500D01*
X7048214Y-13532214D01*
X7005357Y-13532214D01*
X6976786Y-13517929D01*
X6962500Y-13489357D01*
X6962500Y-13475071D01*
X6976786Y-13446500D01*
X7005357Y-13432214D01*
X7048214Y-13432214D01*
X7076786Y-13446500D01*
X7191071Y-13746500D02*
X7205357Y-13732214D01*
X7233928Y-13689357D01*
X7248214Y-13660786D01*
X7262500Y-13617929D01*
X7276786Y-13546500D01*
X7276786Y-13489357D01*
X7262500Y-13417929D01*
X7248214Y-13375071D01*
X7233928Y-13346500D01*
X7205357Y-13303643D01*
X7191071Y-13289357D01*
M02*
