M48
; DRILL file {KiCad 5.99.0+really5.1.10+dfsg1-1} date Thu May 12 15:51:32 2022
; FORMAT={-:-/ absolute / metric / decimal}
; #@! TF.CreationDate,2022-05-12T15:51:32+02:00
; #@! TF.GenerationSoftware,Kicad,Pcbnew,5.99.0+really5.1.10+dfsg1-1
; #@! TF.FileFunction,Plated,1,2,PTH
FMAT,2
METRIC
T1C0.800
T2C1.000
T3C1.200
T4C1.300
T5C1.520
%
G90
G05
T1
X3.5Y-51.8
X3.5Y-64.5
X9.0Y-51.8
X9.0Y-64.5
X14.5Y-51.8
X14.5Y-64.5
X19.5Y-51.8
X19.5Y-64.5
X25.5Y-51.8
X25.5Y-64.5
X30.5Y-51.8
X30.5Y-64.5
X36.5Y-51.8
X36.5Y-64.5
X42.0Y-52.0
X42.0Y-64.7
X61.0Y-52.0
X61.0Y-64.7
X84.0Y-52.0
X84.0Y-64.7
X92.0Y-51.8
X92.0Y-64.5
X103.5Y-51.8
X103.5Y-64.5
X109.5Y-51.8
X109.5Y-64.5
X130.5Y-51.8
X130.5Y-64.5
X136.5Y-51.8
X136.5Y-64.5
X147.5Y-51.8
X147.5Y-64.5
X155.5Y-51.8
X155.5Y-64.5
X173.0Y-51.8
X173.0Y-64.5
X181.0Y-51.8
X181.0Y-64.5
X192.5Y-51.8
X192.5Y-64.5
T2
X4.32Y-77.96
X4.32Y-80.5
X6.86Y-77.96
X6.86Y-80.5
X9.4Y-77.96
X9.4Y-80.5
X10.64Y-87.0
X10.64Y-89.54
X11.94Y-77.96
X11.94Y-80.5
X13.18Y-87.0
X13.18Y-89.54
X14.48Y-77.96
X14.48Y-80.5
X15.72Y-87.0
X15.72Y-89.54
X17.02Y-77.96
X17.02Y-80.5
X18.26Y-87.0
X18.26Y-89.54
X19.56Y-77.96
X19.56Y-80.5
X20.8Y-87.0
X20.8Y-89.54
X22.1Y-77.96
X22.1Y-80.5
X23.34Y-87.0
X23.34Y-89.54
X24.64Y-77.96
X24.64Y-80.5
X25.88Y-87.0
X25.88Y-89.54
X27.18Y-77.96
X27.18Y-80.5
X28.42Y-87.0
X28.42Y-89.54
X29.72Y-77.96
X29.72Y-80.5
X30.96Y-87.0
X30.96Y-89.54
X32.26Y-77.96
X32.26Y-80.5
X33.5Y-87.0
X33.5Y-89.54
X34.8Y-77.96
X34.8Y-80.5
X37.34Y-77.96
X37.34Y-80.5
X39.88Y-77.96
X39.88Y-80.5
X42.42Y-77.96
X42.42Y-80.5
X44.96Y-77.96
X44.96Y-80.5
X47.5Y-77.96
X47.5Y-80.5
X50.04Y-77.96
X50.04Y-80.5
X52.58Y-77.96
X52.58Y-80.5
X70.64Y-74.5
X73.18Y-74.5
X75.72Y-74.5
X78.26Y-74.5
X80.8Y-74.5
X83.34Y-74.5
X85.88Y-74.5
X88.42Y-74.5
X90.96Y-74.5
X93.5Y-74.5
X112.64Y-74.5
X115.18Y-74.5
X117.72Y-74.5
X120.26Y-74.5
X122.8Y-74.5
X125.34Y-74.5
X127.88Y-74.5
X130.42Y-74.5
X132.96Y-74.5
X135.5Y-74.5
X160.64Y-74.5
X163.18Y-74.5
X165.72Y-74.5
X168.26Y-74.5
X170.8Y-74.5
X173.34Y-74.5
X175.88Y-74.5
X178.42Y-74.5
X180.96Y-74.5
X183.5Y-74.5
T3
X53.0Y-86.5
T4
X5.0Y-92.0
X5.2Y-88.5
X52.5Y-58.0
X55.0Y-61.0
X93.0Y-84.5
X98.0Y-84.5
X143.0Y-75.0
X149.0Y-75.0
X179.0Y-70.0
T5
X3.5Y-44.5
X8.58Y-44.5
X14.5Y-44.5
X19.58Y-44.5
X25.5Y-44.5
X30.58Y-44.5
X36.5Y-44.5
X41.58Y-44.5
X50.72Y-44.5
X55.8Y-44.5
X64.0Y-44.5
X69.08Y-44.5
X75.5Y-44.5
X80.58Y-44.5
X84.92Y-96.5
X86.92Y-44.5
X90.0Y-96.5
X92.0Y-44.5
X98.0Y-44.5
X103.08Y-44.5
X109.42Y-44.5
X114.5Y-44.5
X120.5Y-44.5
X125.58Y-44.5
X131.5Y-44.5
X136.58Y-44.5
X142.42Y-44.5
X147.5Y-44.5
X153.5Y-44.5
X158.58Y-44.5
X164.5Y-44.5
X169.58Y-44.5
X176.0Y-44.5
X181.08Y-44.5
X187.5Y-44.5
X192.58Y-44.5
T0
M30
